<svg width="17" height="19" viewBox="0 0 17 19" fill="none" xmlns="http://www.w3.org/2000/svg">
<path d="M5.74805 8.36667C5.74805 9.09239 6.03634 9.78839 6.5495 10.3015C7.06266 10.8147 7.75866 11.103 8.48438 11.103C9.21009 11.103 9.90609 10.8147 10.4193 10.3015C10.9324 9.78839 11.2207 9.09239 11.2207 8.36667C11.2207 7.64095 10.9324 6.94496 10.4193 6.4318C9.90609 5.91864 9.21009 5.63035 8.48438 5.63035C7.75866 5.63035 7.06266 5.91864 6.5495 6.4318C6.03634 6.94496 5.74805 7.64095 5.74805 8.36667Z" stroke="white" stroke-width="1.5" stroke-linecap="round" stroke-linejoin="round"/>
<path d="M13.6442 13.5265L9.7741 17.3966C9.43204 17.7383 8.96832 17.9302 8.48483 17.9302C8.00134 17.9302 7.53762 17.7383 7.19557 17.3966L3.32457 13.5265C2.30413 12.506 1.6092 11.2058 1.32768 9.79035C1.04616 8.37491 1.19069 6.90777 1.74298 5.57446C2.29527 4.24115 3.23053 3.10156 4.43049 2.29979C5.63045 1.49801 7.04121 1.07007 8.48438 1.07007C9.92754 1.07007 11.3383 1.49801 12.5383 2.29979C13.7382 3.10156 14.6735 4.24115 15.2258 5.57446C15.7781 6.90777 15.9226 8.37491 15.6411 9.79035C15.3595 11.2058 14.6646 12.506 13.6442 13.5265Z" stroke="white" stroke-width="1.5" stroke-linecap="round" stroke-linejoin="round"/>
</svg>
