<svg width="44" height="51" viewBox="0 0 44 51" fill="none" xmlns="http://www.w3.org/2000/svg">
<path d="M2.9541 48.3195V43.1729C2.9541 40.4429 4.32535 37.8248 6.76619 35.8945C9.20703 33.9641 12.5175 32.8797 15.9694 32.8797H28.9847C32.4366 32.8797 35.747 33.9641 38.1879 35.8945C40.6287 37.8248 42 40.4429 42 43.1729V48.3195M12.1837 12.2932C12.1837 15.0232 13.2682 17.6413 15.1985 19.5716C17.1289 21.502 19.747 22.5864 22.4769 22.5864C25.2068 22.5864 27.825 21.502 29.7553 19.5716C31.6857 17.6413 32.7701 15.0232 32.7701 12.2932C32.7701 9.56329 31.6857 6.94517 29.7553 5.01481C27.825 3.08446 25.2068 2 22.4769 2C19.747 2 17.1289 3.08446 15.1985 5.01481C13.2682 6.94517 12.1837 9.56329 12.1837 12.2932Z" stroke="white" stroke-width="4" stroke-linecap="round" stroke-linejoin="round"/>
</svg>
