<svg width="40" height="39" viewBox="0 0 40 39" fill="none" xmlns="http://www.w3.org/2000/svg">
<path d="M14.0631 19.6709L17.9102 23.5181L25.6046 15.8238M6.36873 10.4377C6.36873 9.31535 6.81459 8.23895 7.60822 7.44532C8.40185 6.65168 9.47825 6.20583 10.6006 6.20583H12.5242C13.6416 6.20519 14.7134 5.76264 15.5058 4.97473L16.8523 3.62822C17.2455 3.23273 17.7131 2.91888 18.2281 2.70472C18.7431 2.49056 19.2953 2.38031 19.8531 2.38031C20.4108 2.38031 20.963 2.49056 21.478 2.70472C21.993 2.91888 22.4606 3.23273 22.8539 3.62822L24.2004 4.97473C24.9929 5.7634 26.0662 6.20583 27.1819 6.20583H29.1055C30.2279 6.20583 31.3043 6.65168 32.0979 7.44532C32.8915 8.23895 33.3374 9.31535 33.3374 10.4377V12.3613C33.3374 13.477 33.7798 14.5503 34.5685 15.3429L35.915 16.6894C36.3105 17.0826 36.6243 17.5502 36.8385 18.0652C37.0527 18.5802 37.1629 19.1324 37.1629 19.6902C37.1629 20.2479 37.0527 20.8001 36.8385 21.3151C36.6243 21.8301 36.3105 22.2977 35.915 22.691L34.5685 24.0375C33.7806 24.8298 33.338 25.9016 33.3374 27.019V28.9426C33.3374 30.065 32.8915 31.1414 32.0979 31.935C31.3043 32.7286 30.2279 33.1745 29.1055 33.1745H27.1819C26.0645 33.1751 24.9927 33.6177 24.2004 34.4056L22.8539 35.7521C22.4606 36.1476 21.993 36.4614 21.478 36.6756C20.963 36.8898 20.4108 37 19.8531 37C19.2953 37 18.7431 36.8898 18.2281 36.6756C17.7131 36.4614 17.2455 36.1476 16.8523 35.7521L15.5058 34.4056C14.7134 33.6177 13.6416 33.1751 12.5242 33.1745H10.6006C9.47825 33.1745 8.40185 32.7286 7.60822 31.935C6.81459 31.1414 6.36873 30.065 6.36873 28.9426V27.019C6.36809 25.9016 5.92554 24.8298 5.13763 24.0375L3.79112 22.691C3.39564 22.2977 3.08179 21.8301 2.86762 21.3151C2.65346 20.8001 2.54321 20.2479 2.54321 19.6902C2.54321 19.1324 2.65346 18.5802 2.86762 18.0652C3.08179 17.5502 3.39564 17.0826 3.79112 16.6894L5.13763 15.3429C5.92554 14.5505 6.36809 13.4787 6.36873 12.3613V10.4377Z" stroke="#FE6601" stroke-width="4" stroke-linecap="round" stroke-linejoin="round"/>
</svg>
