<svg width="47" height="57" viewBox="0 0 47 57" fill="none" xmlns="http://www.w3.org/2000/svg">
<path d="M34.9641 43.1256C36.295 43.1256 37.5713 43.6543 38.5123 44.5953C39.4534 45.5364 39.9821 46.8127 39.9821 48.1436C39.9821 46.8127 40.5107 45.5364 41.4518 44.5953C42.3928 43.6543 43.6692 43.1256 45 43.1256C43.6692 43.1256 42.3928 42.5969 41.4518 41.6559C40.5107 40.7148 39.9821 39.4385 39.9821 38.1077C39.9821 39.4385 39.4534 40.7148 38.5123 41.6559C37.5713 42.5969 36.295 43.1256 34.9641 43.1256ZM34.9641 13.0179C36.295 13.0179 37.5713 13.5466 38.5123 14.4877C39.4534 15.4287 39.9821 16.705 39.9821 18.0359C39.9821 16.705 40.5107 15.4287 41.4518 14.4877C42.3928 13.5466 43.6692 13.0179 45 13.0179C43.6692 13.0179 42.3928 12.4893 41.4518 11.5482C40.5107 10.6072 39.9821 9.33084 39.9821 8C39.9821 9.33084 39.4534 10.6072 38.5123 11.5482C37.5713 12.4893 36.295 13.0179 34.9641 13.0179ZM17.4013 43.1256C17.4013 39.1331 18.9873 35.3041 21.8105 32.4809C24.6336 29.6578 28.4626 28.0718 32.4551 28.0718C28.4626 28.0718 24.6336 26.4858 21.8105 23.6626C18.9873 20.8395 17.4013 17.0105 17.4013 13.0179C17.4013 17.0105 15.8153 20.8395 12.9921 23.6626C10.169 26.4858 6.34 28.0718 2.34747 28.0718C6.34 28.0718 10.169 29.6578 12.9921 32.4809C15.8153 35.3041 17.4013 39.1331 17.4013 43.1256Z" stroke="white" stroke-width="4" stroke-linecap="round" stroke-linejoin="round"/>
</svg>
