<svg width="24" height="24" viewBox="0 0 24 24" fill="none" xmlns="http://www.w3.org/2000/svg">
<path d="M2 22.0657H22M4.22222 22.0657V4.2879C4.22222 3.69853 4.45635 3.1333 4.8731 2.71655C5.28984 2.2998 5.85507 2.06567 6.44444 2.06567H17.5556C18.1449 2.06567 18.7102 2.2998 19.1269 2.71655C19.5437 3.1333 19.7778 3.69853 19.7778 4.2879V22.0657M8.66667 22.0657V17.6212C8.66667 17.0319 8.90079 16.4666 9.31754 16.0499C9.73429 15.6331 10.2995 15.399 10.8889 15.399H13.1111C13.7005 15.399 14.2657 15.6331 14.6825 16.0499C15.0992 16.4666 15.3333 17.0319 15.3333 17.6212V22.0657M9.77778 8.73234H14.2222M12 6.51012V10.9546" stroke="#FE6601" stroke-width="2.4" stroke-linecap="round" stroke-linejoin="round"/>
</svg>
