<svg width="25" height="24" viewBox="0 0 25 24" fill="none" xmlns="http://www.w3.org/2000/svg">
<path d="M2 22.0657H23.1765M20.8235 22.0657V17.3598M20.8235 17.3598C21.4476 17.3598 22.046 17.1119 22.4873 16.6706C22.9286 16.2294 23.1765 15.6309 23.1765 15.0069V12.6539C23.1765 12.0299 22.9286 11.4314 22.4873 10.9901C22.046 10.5489 21.4476 10.301 20.8235 10.301C20.1995 10.301 19.601 10.5489 19.1597 10.9901C18.7185 11.4314 18.4706 12.0299 18.4706 12.6539V15.0069C18.4706 15.6309 18.7185 16.2294 19.1597 16.6706C19.601 17.1119 20.1995 17.3598 20.8235 17.3598ZM14.9412 22.0657V5.59509C14.9412 4.65903 14.5693 3.76131 13.9074 3.09941C13.2455 2.43752 12.3478 2.06567 11.4118 2.06567H6.70588C5.76982 2.06567 4.8721 2.43752 4.21021 3.09941C3.54832 3.76131 3.17647 4.65903 3.17647 5.59509V22.0657M9.05882 17.3598V22.0657M7.88235 12.6539H10.2353M7.88235 7.94803H10.2353" stroke="#FE6601" stroke-width="2.4" stroke-linecap="round" stroke-linejoin="round"/>
</svg>
