<svg width="53" height="53" viewBox="0 0 53 53" fill="none" xmlns="http://www.w3.org/2000/svg">
<g filter="url(#filter0_b_3280_2188)">
<path d="M27.8948 0.0654297C28.8291 0.203134 29.7706 0.304117 30.6958 0.488742C31.7229 0.693768 32.7419 0.949795 33.7507 1.23234C34.5423 1.45369 34.9156 2.15547 34.7045 2.88785C34.4994 3.59677 33.7926 3.96908 32.998 3.73142C30.5275 2.98986 28.009 2.61958 25.4293 2.70527C19.4581 2.90519 14.2692 5.03706 9.92285 9.13758C6.23238 12.62 3.85673 16.8898 3.01011 21.893C1.61063 30.1634 3.91385 37.323 9.90551 43.2055C13.1839 46.4237 17.1447 48.4669 21.6654 49.2523C29.942 50.6905 37.1046 48.4067 43.0014 42.4069C46.4807 38.8674 48.5096 34.5414 49.2562 29.6381C49.7826 26.1833 49.5184 22.7652 48.5136 19.4103C48.226 18.4504 48.5779 17.6864 49.3796 17.511C50.1151 17.3498 50.7404 17.7283 50.975 18.5014C51.8593 21.4198 52.2612 24.4054 52.095 27.4502C51.8124 32.6125 50.2161 37.3363 47.1519 41.5082C43.0096 47.149 37.4677 50.5987 30.5938 51.884C29.6992 52.0513 28.7934 52.1563 27.8927 52.291H24.2277C24.0992 52.2583 23.9727 52.2043 23.8432 52.1951C21.5695 52.0196 19.3479 51.5606 17.2263 50.7364C7.98377 47.1439 2.39605 40.4423 0.406992 30.7214C0.223387 29.8289 0.133624 28.917 0 28.0142C0 26.7902 0 25.5662 0 24.3421C0.034681 24.1779 0.0785423 24.0157 0.102003 23.8505C0.222366 22.9947 0.292749 22.1297 0.461053 21.2841C1.60553 15.527 4.30963 10.6401 8.68759 6.7201C12.3444 3.44581 16.604 1.37413 21.4278 0.482622C22.356 0.311257 23.2954 0.203134 24.2288 0.0654297C25.4508 0.0654297 26.6717 0.0654297 27.8937 0.0654297H27.8948Z" fill="#FE6601"/>
<path d="M44.3427 26.2802C44.1703 31.5456 42.2598 35.9297 38.4929 39.4539C35.6898 42.0774 32.3615 43.6442 28.5455 44.1399C18.9511 45.3854 10.1728 39.1111 8.30304 29.5545C6.30174 19.3277 13.2247 9.73531 23.1843 8.14101C24.5113 7.92884 25.8822 7.96148 27.2338 7.93904C27.96 7.9268 28.5272 8.48068 28.6037 9.13451C28.6802 9.78937 28.3456 10.33 27.7305 10.5034C27.5398 10.5575 27.3276 10.5687 27.1287 10.5524C19.555 9.94952 12.6096 15.2873 10.951 22.6693C9.22617 30.3481 13.6143 38.3074 21.0616 40.836C30.0195 43.8778 39.5394 38.4379 41.4101 29.1924C41.6835 27.8429 41.8008 26.476 41.6611 25.0898C41.5519 24.0106 42.4649 23.2844 43.4084 23.6455C43.9347 23.8464 44.2122 24.2626 44.2652 24.8103C44.3162 25.3336 44.3234 25.862 44.3448 26.2802H44.3427Z" fill="#FE6601"/>
<path d="M44.3438 7.86254C45.4413 7.86254 46.4715 7.8605 47.5007 7.86356C47.7884 7.86356 48.0771 7.86662 48.3637 7.89314C48.8859 7.9421 49.2532 8.23179 49.4327 8.71324C49.6112 9.19164 49.5367 9.65779 49.1879 10.0454C48.9043 10.3606 48.5983 10.6554 48.2984 10.9563C46.1043 13.1555 43.899 15.3434 41.7233 17.561C41.2102 18.0843 40.6655 18.3403 39.927 18.3158C38.6908 18.276 37.4514 18.2883 36.2141 18.3189C35.9622 18.325 35.6511 18.4484 35.4736 18.6249C32.7379 21.3382 30.0266 24.0769 27.2858 26.7851C26.9951 27.0728 26.5646 27.2921 26.1648 27.3777C25.6344 27.491 25.2172 27.1635 24.9734 26.6902C24.7378 26.2323 24.7786 25.7661 25.0836 25.3448C25.2019 25.1806 25.3508 25.0378 25.4946 24.894C28.1916 22.1899 30.8875 19.4837 33.5926 16.7878C33.8272 16.5542 33.9292 16.3206 33.9241 15.9881C33.9068 14.6967 33.9292 13.4054 33.9119 12.114C33.9037 11.5336 34.0843 11.0716 34.4994 10.6584C36.9781 8.19201 39.4476 5.71639 41.911 3.23364C42.37 2.77157 42.8759 2.5237 43.5073 2.76953C44.1734 3.02862 44.3478 3.59575 44.3448 4.25673C44.3387 5.42773 44.3427 6.59872 44.3427 7.86356L44.3438 7.86254ZM36.5446 15.677C37.5738 15.677 38.5224 15.6964 39.4701 15.6637C39.7077 15.6556 39.9974 15.5403 40.1667 15.3751C41.6927 13.8777 43.1972 12.3588 44.7069 10.8441C44.7956 10.7553 44.868 10.6513 45.0068 10.481C44.3611 10.481 43.8082 10.485 43.2544 10.481C42.2058 10.4718 41.7396 10.0036 41.7335 8.95703C41.7304 8.39193 41.7335 7.82684 41.7335 7.1169C39.9678 8.89175 38.3174 10.5493 36.6711 12.2119C36.6068 12.2772 36.5517 12.3864 36.5507 12.4761C36.5426 13.5247 36.5456 14.5743 36.5456 15.679L36.5446 15.677Z" fill="#FE6601"/>
<path d="M26.2678 36.4938C20.829 36.4968 16.3776 32.4952 15.8003 27.185C15.1882 21.5615 19.2378 16.4706 24.8877 15.7667C25.2906 15.7168 25.6976 15.6831 26.1026 15.6831C26.8523 15.6831 27.4164 16.2156 27.4592 16.9255C27.5 17.6048 26.9594 18.2077 26.2209 18.2964C25.617 18.3688 24.9989 18.3729 24.4103 18.5096C20.7658 19.3522 18.2167 22.6601 18.3779 26.2955C18.5503 30.1828 21.288 33.2684 25.053 33.8182C29.6319 34.4874 33.7773 30.9703 33.914 26.3016C33.9466 25.1979 34.7453 24.541 35.6643 24.8603C36.2202 25.0531 36.563 25.5397 36.5364 26.2098C36.3702 30.4093 34.4199 33.4959 30.71 35.4421C29.2932 36.1857 27.7571 36.5142 26.2668 36.4938H26.2678Z" fill="#FE6601"/>
</g>
<defs>
<filter id="filter0_b_3280_2188" x="-60" y="-59.9346" width="172.132" height="172.226" filterUnits="userSpaceOnUse" color-interpolation-filters="sRGB">
<feFlood flood-opacity="0" result="BackgroundImageFix"/>
<feGaussianBlur in="BackgroundImageFix" stdDeviation="30"/>
<feComposite in2="SourceAlpha" operator="in" result="effect1_backgroundBlur_3280_2188"/>
<feBlend mode="normal" in="SourceGraphic" in2="effect1_backgroundBlur_3280_2188" result="shape"/>
</filter>
</defs>
</svg>
