<svg width="24" height="24" viewBox="0 0 24 24" fill="none" xmlns="http://www.w3.org/2000/svg">
<path d="M2 22.0657H22M2 6.51012V7.62123C2 8.50528 2.35119 9.35313 2.97631 9.97825C3.60143 10.6034 4.44928 10.9546 5.33333 10.9546C6.21739 10.9546 7.06524 10.6034 7.69036 9.97825C8.31548 9.35313 8.66667 8.50528 8.66667 7.62123M2 6.51012H22M2 6.51012L4.22222 2.06567H19.7778L22 6.51012M8.66667 7.62123V6.51012M8.66667 7.62123C8.66667 8.50528 9.01786 9.35313 9.64298 9.97825C10.2681 10.6034 11.1159 10.9546 12 10.9546C12.8841 10.9546 13.7319 10.6034 14.357 9.97825C14.9821 9.35313 15.3333 8.50528 15.3333 7.62123M15.3333 7.62123V6.51012M15.3333 7.62123C15.3333 8.50528 15.6845 9.35313 16.3096 9.97825C16.9348 10.6034 17.7826 10.9546 18.6667 10.9546C19.5507 10.9546 20.3986 10.6034 21.0237 9.97825C21.6488 9.35313 22 8.50528 22 7.62123V6.51012M4.22222 22.0657V10.7879M19.7778 22.0657V10.7879M8.66667 22.0657V17.6212C8.66667 17.0319 8.90079 16.4666 9.31754 16.0499C9.73429 15.6331 10.2995 15.399 10.8889 15.399H13.1111C13.7005 15.399 14.2657 15.6331 14.6825 16.0499C15.0992 16.4666 15.3333 17.0319 15.3333 17.6212V22.0657" stroke="#FE6601" stroke-width="2.4" stroke-linecap="round" stroke-linejoin="round"/>
</svg>
