<svg width="21" height="21" viewBox="0 0 21 21" fill="none" xmlns="http://www.w3.org/2000/svg">
<path d="M10.649 0.5C8.64171 0.5 6.67951 1.09523 5.01052 2.21041C3.34152 3.3256 2.0407 4.91065 1.27255 6.76514C0.504397 8.61962 0.303414 10.6602 0.695014 12.629C1.08662 14.5977 2.05321 16.406 3.47257 17.8254C4.89193 19.2448 6.70031 20.2114 8.66902 20.603C10.6377 20.9946 12.6784 20.7936 14.5328 20.0254C16.3873 19.2573 17.9724 17.9565 19.0876 16.2875C20.2027 14.6185 20.798 12.6563 20.798 10.649C20.798 7.95731 19.7287 5.37587 17.8254 3.47257C15.9221 1.56927 13.3407 0.5 10.649 0.5ZM9.19913 14.7013L5.5745 11.0767L6.72713 9.92406L9.19913 12.3961L14.5708 7.02435L15.7278 8.17408L9.19913 14.7013Z" fill="#FE6601"/>
<path d="M9.19913 14.7013L5.5745 11.0767L6.72713 9.92406L9.19913 12.3961L14.5708 7.02435L15.7278 8.17408L9.19913 14.7013Z" fill="white"/>
</svg>
