<svg width="53" height="53" viewBox="0 0 53 53" fill="none" xmlns="http://www.w3.org/2000/svg">
<g filter="url(#filter0_b_3280_2193)">
<path d="M52.329 26.5843C48.9208 32.7739 44.0313 37.3663 37.5229 40.1858C33.4306 41.9587 29.1325 42.7218 24.6859 42.4643C16.8025 42.005 10.1714 38.8122 4.72869 33.1309C2.84948 31.1699 1.29187 28.9719 0 26.5857V25.7694C3.12611 20.0596 7.56862 15.6988 13.4188 12.803C16.6962 11.18 20.1698 10.2506 23.8206 9.95081C35.8617 8.96146 46.5646 15.4944 52.0605 25.2857C52.1505 25.4465 52.239 25.6086 52.329 25.7694V26.5857V26.5843ZM25.7747 12.8466C24.4447 13.0129 22.6977 13.0987 21.012 13.4653C13.4434 15.106 7.6572 19.3087 3.52403 25.8212C3.34824 26.0978 3.35641 26.2927 3.54038 26.5503C4.06231 27.2834 4.51746 28.0684 5.08027 28.7674C11.6977 36.9793 20.2025 40.7268 30.7106 38.977C38.6063 37.662 44.5641 33.2154 48.8159 26.4794C48.9112 26.3295 48.9017 26.0093 48.8022 25.8553C43.5162 17.6189 35.9884 13.2745 25.7747 12.848V12.8466Z" fill="#FE6601"/>
<path d="M25.7557 52.2896C24.8835 51.9039 24.5769 51.2335 24.6205 50.2959C24.675 49.1281 24.6314 47.9561 24.6341 46.7855C24.6369 45.8084 25.2774 45.1407 26.189 45.1516C27.0734 45.1625 27.6908 45.8289 27.6948 46.7855C27.6989 47.9561 27.6553 49.1281 27.7085 50.2959C27.7507 51.2321 27.4496 51.908 26.5733 52.291H25.7557V52.2896Z" fill="#FE6601"/>
<path d="M14.1111 2.10555C14.5063 2.11645 14.9819 2.38218 15.2599 2.92455C15.9631 4.29682 16.6635 5.67182 17.3313 7.06045C17.7046 7.83584 17.3626 8.73389 16.6158 9.09637C15.8813 9.45341 14.9914 9.19313 14.5976 8.4409C13.8754 7.06045 13.164 5.67046 12.5044 4.26003C12.0234 3.23253 12.7784 2.10827 14.1097 2.10555H14.1111Z" fill="#FE6601"/>
<path d="M39.9581 3.78444C39.9376 3.86347 39.9145 4.08969 39.8191 4.28183C39.1377 5.66501 38.4564 7.04818 37.7436 8.41637C37.3771 9.11954 36.6344 9.40163 35.9298 9.17405C35.2049 8.94102 34.7729 8.28418 34.8642 7.52378C34.886 7.34253 34.9473 7.15856 35.0277 6.99367C35.6968 5.64184 36.3632 4.29001 37.0527 2.94908C37.4002 2.27316 38.1211 1.96246 38.812 2.13961C39.4866 2.31268 39.9608 2.93409 39.9581 3.78444Z" fill="#FE6601"/>
<path d="M27.6948 3.63317C27.6948 4.31181 27.703 4.99045 27.6935 5.66773C27.6799 6.55896 27.0107 7.21171 26.1386 7.20081C25.2937 7.18991 24.6423 6.53852 24.6369 5.66773C24.6273 4.31045 24.6273 2.95453 24.6369 1.59725C24.6423 0.726459 25.2937 0.0750725 26.14 0.0655333C27.0135 0.0559942 27.6812 0.706018 27.6948 1.59861C27.7044 2.27725 27.6962 2.95589 27.6962 3.63317H27.6948Z" fill="#FE6601"/>
<path d="M14.1166 50.2455C12.8206 50.2578 12.0248 49.1648 12.4826 48.166C13.1531 46.7037 13.8876 45.2701 14.6439 43.8502C15.0296 43.1266 15.9208 42.9099 16.639 43.271C17.349 43.6281 17.7033 44.4798 17.3544 45.2197C16.6744 46.6601 15.9508 48.0787 15.219 49.4933C14.9587 49.9975 14.4872 50.2291 14.1166 50.2455Z" fill="#FE6601"/>
<path d="M39.9581 48.5816C39.9676 49.3938 39.5397 49.9825 38.8747 50.1883C38.2329 50.3872 37.4602 50.1501 37.1427 49.5464C36.3836 48.1074 35.6532 46.6533 34.9609 45.1829C34.6257 44.4716 34.9855 43.6349 35.6777 43.2765C36.3659 42.9194 37.283 43.1075 37.651 43.7943C38.4277 45.2415 39.1377 46.7255 39.8654 48.1987C39.9376 48.3445 39.9445 48.5244 39.9567 48.5816H39.9581Z" fill="#FE6601"/>
<path d="M26.1699 34.8439C21.3241 34.8398 17.4771 30.9764 17.4798 26.1169C17.4825 21.3392 21.3813 17.5058 26.2367 17.5085C30.9722 17.5099 34.8533 21.41 34.8506 26.1592C34.8478 30.9792 30.9804 34.848 26.1699 34.8439ZM26.159 31.7873C29.2715 31.7709 31.8103 29.2117 31.7844 26.1156C31.7585 23.0712 29.1884 20.5433 26.1413 20.5665C23.0493 20.5897 20.5269 23.1325 20.5419 26.2096C20.5568 29.2567 23.1215 31.8022 26.1577 31.7873H26.159Z" fill="#FE6601"/>
</g>
<defs>
<filter id="filter0_b_3280_2193" x="-60" y="-59.9346" width="172.329" height="172.226" filterUnits="userSpaceOnUse" color-interpolation-filters="sRGB">
<feFlood flood-opacity="0" result="BackgroundImageFix"/>
<feGaussianBlur in="BackgroundImageFix" stdDeviation="30"/>
<feComposite in2="SourceAlpha" operator="in" result="effect1_backgroundBlur_3280_2193"/>
<feBlend mode="normal" in="SourceGraphic" in2="effect1_backgroundBlur_3280_2193" result="shape"/>
</filter>
</defs>
</svg>
