<svg width="16" height="15" viewBox="0 0 16 15" fill="none" xmlns="http://www.w3.org/2000/svg">
<path d="M0.75 7.5C0.75 8.20724 1.03095 8.88552 1.53105 9.38562C2.03115 9.88572 2.70942 10.1667 3.41667 10.1667C4.12391 10.1667 4.80219 9.88572 5.30229 9.38562C5.39295 9.29496 5.4764 9.19844 5.55229 9.09696L9.50957 11.1356C9.44842 11.3611 9.41667 11.5956 9.41667 11.8333C9.41667 12.5406 9.69762 13.2189 10.1977 13.719C10.6978 14.219 11.3761 14.5 12.0833 14.5C12.7906 14.5 13.4689 14.219 13.969 13.719C14.469 13.2189 14.75 12.5406 14.75 11.8333C14.75 11.1261 14.469 10.4478 13.969 9.94771C13.4689 9.44762 12.7906 9.16667 12.0833 9.16667C11.3761 9.16667 10.6978 9.44762 10.1977 9.94772C10.1071 10.0384 10.0236 10.1349 9.94771 10.2364L5.99043 8.19778C6.05158 7.97224 6.08333 7.73775 6.08333 7.5C6.08333 7.26224 6.05158 7.02776 5.99043 6.80222L9.94771 4.76363C10.0236 4.86511 10.1071 4.96162 10.1977 5.05229C10.6978 5.55238 11.3761 5.83333 12.0833 5.83333C12.7906 5.83333 13.4689 5.55238 13.969 5.05229C14.469 4.55219 14.75 3.87391 14.75 3.16667C14.75 2.45942 14.469 1.78115 13.969 1.28105L13.6154 1.6346L13.969 1.28105C13.4689 0.780952 12.7906 0.5 12.0833 0.5C11.3761 0.5 10.6978 0.780952 10.1977 1.28105C9.69762 1.78115 9.41667 2.45942 9.41667 3.16667C9.41667 3.40442 9.44842 3.6389 9.50957 3.86444L5.55229 5.90304C5.4764 5.80156 5.39294 5.70504 5.30228 5.61438C4.80219 5.11428 4.12391 4.83333 3.41667 4.83333C2.70942 4.83333 2.03115 5.11428 1.53105 5.61438C1.03095 6.11448 0.75 6.79276 0.75 7.5Z" fill="#FF671F" stroke="#FF671F"/>
</svg>
