<svg width="12" height="15" viewBox="0 0 12 15" fill="none" xmlns="http://www.w3.org/2000/svg">
<path d="M7.50028 1.24976V4.02766C7.50028 4.21184 7.57345 4.38849 7.70369 4.51873C7.83393 4.64897 8.01057 4.72213 8.19475 4.72213H10.9727M7.50028 1.24976H2.63895C2.27058 1.24976 1.91729 1.39609 1.65681 1.65657C1.39634 1.91705 1.25 2.27033 1.25 2.63871V12.3614C1.25 12.7297 1.39634 13.083 1.65681 13.3435C1.91729 13.604 2.27058 13.7503 2.63895 13.7503H9.58371C9.95208 13.7503 10.3054 13.604 10.5658 13.3435C10.8263 13.083 10.9727 12.7297 10.9727 12.3614V4.72213M7.50028 1.24976L10.9727 4.72213M4.0279 5.41661H4.72238M4.0279 8.19451H8.19475M4.0279 10.9724H8.19475" stroke="white" stroke-opacity="0.8" stroke-width="1.2" stroke-linecap="round" stroke-linejoin="round"/>
</svg>
