<svg width="19" height="17" viewBox="0 0 19 17" fill="none" xmlns="http://www.w3.org/2000/svg">
<path d="M12.2274 4.98664H13.9841M12.2274 8.49995H13.9841M5.20081 12.0133H13.9841M1.6875 4.10831C1.6875 3.40947 1.96511 2.73925 2.45927 2.2451C2.95342 1.75094 3.62364 1.47333 4.32248 1.47333H14.8624C15.5613 1.47333 16.2315 1.75094 16.7256 2.2451C17.2198 2.73925 17.4974 3.40947 17.4974 4.10831V12.8916C17.4974 13.5904 17.2198 14.2606 16.7256 14.7548C16.2315 15.249 15.5613 15.5266 14.8624 15.5266H4.32248C3.62364 15.5266 2.95342 15.249 2.45927 14.7548C1.96511 14.2606 1.6875 13.5904 1.6875 12.8916V4.10831ZM5.20081 6.74329C5.20081 7.20919 5.38589 7.656 5.71532 7.98544C6.04476 8.31487 6.49157 8.49995 6.95747 8.49995C7.42336 8.49995 7.87017 8.31487 8.19961 7.98544C8.52904 7.656 8.71412 7.20919 8.71412 6.74329C8.71412 6.2774 8.52904 5.83059 8.19961 5.50115C7.87017 5.17171 7.42336 4.98664 6.95747 4.98664C6.49157 4.98664 6.04476 5.17171 5.71532 5.50115C5.38589 5.83059 5.20081 6.2774 5.20081 6.74329Z" stroke="#FE6601" stroke-width="1.5" stroke-linecap="round" stroke-linejoin="round"/>
</svg>
