<svg width="18" height="17" viewBox="0 0 18 17" fill="none" xmlns="http://www.w3.org/2000/svg">
<path d="M13.0382 12.5538H14.6597C15.0898 12.5538 15.5022 12.383 15.8063 12.0789C16.1104 11.7748 16.2813 11.3623 16.2813 10.9323V7.68924C16.2813 7.25918 16.1104 6.84674 15.8063 6.54264C15.5022 6.23855 15.0898 6.06771 14.6597 6.06771H3.30903C2.87897 6.06771 2.46653 6.23855 2.16243 6.54264C1.85834 6.84674 1.6875 7.25918 1.6875 7.68924V10.9323C1.6875 11.3623 1.85834 11.7748 2.16243 12.0789C2.46653 12.383 2.87897 12.5538 3.30903 12.5538H4.93056M13.0382 6.06771V2.82465C13.0382 2.3946 12.8674 1.98215 12.5633 1.67806C12.2592 1.37396 11.8467 1.20313 11.4167 1.20312H6.55208C6.12203 1.20313 5.70959 1.37396 5.40549 1.67806C5.10139 1.98215 4.93056 2.3946 4.93056 2.82465V6.06771M4.93056 10.9323C4.93056 10.5022 5.10139 10.0898 5.40549 9.7857C5.70959 9.4816 6.12203 9.31076 6.55208 9.31076H11.4167C11.8467 9.31076 12.2592 9.4816 12.5633 9.7857C12.8674 10.0898 13.0382 10.5022 13.0382 10.9323V14.1753C13.0382 14.6054 12.8674 15.0178 12.5633 15.3219C12.2592 15.626 11.8467 15.7969 11.4167 15.7969H6.55208C6.12203 15.7969 5.70959 15.626 5.40549 15.3219C5.10139 15.0178 4.93056 14.6054 4.93056 14.1753V10.9323Z" stroke="#FE6601" stroke-width="1.5" stroke-linecap="round" stroke-linejoin="round"/>
</svg>
