<svg width="17" height="19" viewBox="0 0 17 19" fill="none" xmlns="http://www.w3.org/2000/svg">
<path d="M5.74805 8.36655C5.74805 9.09227 6.03634 9.78827 6.5495 10.3014C7.06266 10.8146 7.75866 11.1029 8.48438 11.1029C9.21009 11.1029 9.90609 10.8146 10.4193 10.3014C10.9324 9.78827 11.2207 9.09227 11.2207 8.36655C11.2207 7.64083 10.9324 6.94484 10.4193 6.43168C9.90609 5.91852 9.21009 5.63022 8.48438 5.63022C7.75866 5.63022 7.06266 5.91852 6.5495 6.43168C6.03634 6.94484 5.74805 7.64083 5.74805 8.36655Z" stroke="#FE6601" stroke-width="1.5" stroke-linecap="round" stroke-linejoin="round"/>
<path d="M13.6442 13.5264L9.7741 17.3964C9.43204 17.7381 8.96832 17.9301 8.48483 17.9301C8.00134 17.9301 7.53762 17.7381 7.19557 17.3964L3.32457 13.5264C2.30413 12.5059 1.6092 11.2057 1.32768 9.79023C1.04616 8.37478 1.19069 6.90765 1.74298 5.57434C2.29527 4.24103 3.23053 3.10144 4.43049 2.29966C5.63045 1.49789 7.04121 1.06995 8.48438 1.06995C9.92754 1.06995 11.3383 1.49789 12.5383 2.29966C13.7382 3.10144 14.6735 4.24103 15.2258 5.57434C15.7781 6.90765 15.9226 8.37478 15.6411 9.79023C15.3595 11.2057 14.6646 12.5059 13.6442 13.5264Z" stroke="#FE6601" stroke-width="1.5" stroke-linecap="round" stroke-linejoin="round"/>
</svg>
