<svg width="17" height="13" viewBox="0 0 17 13" fill="none" xmlns="http://www.w3.org/2000/svg">
<path d="M1.1875 2.44611C1.1875 2.01606 1.35834 1.60361 1.66243 1.29952C1.96653 0.995424 2.37897 0.824585 2.80903 0.824585H14.1597C14.5898 0.824585 15.0022 0.995424 15.3063 1.29952C15.6104 1.60361 15.7813 2.01606 15.7813 2.44611M1.1875 2.44611V10.5538C1.1875 10.9838 1.35834 11.3962 1.66243 11.7003C1.96653 12.0044 2.37897 12.1753 2.80903 12.1753H14.1597C14.5898 12.1753 15.0022 12.0044 15.3063 11.7003C15.6104 11.3962 15.7813 10.9838 15.7813 10.5538V2.44611M1.1875 2.44611L8.48438 7.3107L15.7813 2.44611" stroke="#FE6601" stroke-width="1.5" stroke-linecap="round" stroke-linejoin="round"/>
</svg>
