<svg width="22" height="23" viewBox="0 0 22 23" fill="none" xmlns="http://www.w3.org/2000/svg">
<path d="M13.5489 7.58696H16.5924M13.5489 11.9348H16.5924M13.5489 16.2826H16.5924M8.33152 6.71739H1.375M8.33152 17.1522H1.375M14.4185 2.36957H19.6359C20.1161 2.36957 20.5054 2.75888 20.5054 3.23913V20.6304C20.5054 21.1107 20.1161 21.5 19.6359 21.5H14.4185C13.9382 21.5 13.5489 21.1107 13.5489 20.6304V3.23913C13.5489 2.75888 13.9382 2.36957 14.4185 2.36957ZM1.375 4.97826L4.85326 1.5L8.33152 4.97826V20.6304C8.33152 20.8611 8.23991 21.0822 8.07683 21.2453C7.91376 21.4084 7.69258 21.5 7.46196 21.5H2.24457C2.01394 21.5 1.79277 21.4084 1.62969 21.2453C1.46661 21.0822 1.375 20.8611 1.375 20.6304V4.97826Z" stroke="#FE6601" stroke-width="2.23214" stroke-linecap="round" stroke-linejoin="round"/>
</svg>
