<svg width="34" height="34" viewBox="0 0 34 34" fill="none" xmlns="http://www.w3.org/2000/svg">
<mask id="path-1-outside-1_3280_2292" maskUnits="userSpaceOnUse" x="-0.5" y="0" width="34" height="34" fill="black">
<rect fill="white" x="-0.5" width="34" height="34"/>
<path d="M16.8579 1C17.9629 1.7285 19.0651 2.46107 20.1762 3.18078C20.2968 3.25856 20.4682 3.29915 20.6132 3.29238C21.8341 3.23692 23.0536 3.16725 24.2738 3.09893C24.6565 3.07728 24.9092 3.24706 25.0786 3.58595C25.6003 4.62899 26.1355 5.66526 26.6538 6.71033C26.7622 6.92881 26.9024 7.07627 27.1233 7.18518C28.17 7.70196 29.2059 8.24039 30.2527 8.75718C30.6375 8.94725 30.7737 9.23202 30.7459 9.6487C30.6653 10.8554 30.5975 12.0628 30.5392 13.2709C30.5332 13.4028 30.5975 13.5557 30.672 13.6714C31.3123 14.6603 31.9573 15.6452 32.6117 16.6246C32.8583 16.9933 32.8576 17.3335 32.6104 17.7015C31.9593 18.6701 31.3143 19.6435 30.6836 20.6256C30.5846 20.7799 30.5264 20.9936 30.5338 21.1762C30.5826 22.3424 30.6443 23.5085 30.7249 24.6726C30.7561 25.1238 30.5867 25.4018 30.1842 25.5987C29.1355 26.1114 28.0948 26.641 27.0596 27.1801C26.9058 27.2606 26.7568 27.4088 26.6768 27.5623C26.1369 28.5959 25.6166 29.6403 25.0888 30.6799C24.8462 31.1575 24.6681 31.2508 24.1349 31.2184C22.9364 31.146 21.7379 31.0743 20.538 31.0175C20.4066 31.0114 20.2542 31.0797 20.1383 31.1548C19.1505 31.7974 18.162 32.4406 17.1878 33.1029C16.8152 33.3565 16.4913 33.3619 16.1167 33.1069C15.1336 32.4386 14.1377 31.7872 13.1384 31.1433C13.0097 31.0601 12.8267 31.0181 12.673 31.0249C11.4629 31.0824 10.2536 31.1554 9.04495 31.2258C8.66352 31.2481 8.40878 31.0817 8.23873 30.7415C7.72248 29.7072 7.18861 28.6825 6.67778 27.6455C6.55447 27.3946 6.38577 27.2363 6.13646 27.1138C5.13579 26.6228 4.15071 26.0999 3.14598 25.6162C2.70425 25.4039 2.53217 25.1028 2.56672 24.6165C2.64937 23.4625 2.70832 22.3072 2.75574 21.1512C2.76319 20.9686 2.70019 20.7562 2.60059 20.6013C1.9773 19.6266 1.34451 18.6579 0.694115 17.7015C0.432601 17.3173 0.436666 16.9865 0.69818 16.6036C1.35671 15.6404 1.99694 14.6637 2.62973 13.6829C2.71848 13.5455 2.772 13.3541 2.76523 13.1911C2.71441 12.0358 2.6575 10.8798 2.57214 9.72649C2.53555 9.22932 2.70357 8.91681 3.15817 8.69765C4.20965 8.19101 5.24758 7.65664 6.28483 7.12092C6.41355 7.05463 6.53821 6.93084 6.60461 6.803C7.15067 5.74846 7.68928 4.69054 8.21366 3.62518C8.41217 3.22204 8.70078 3.06173 9.14861 3.09284C10.3464 3.17536 11.5456 3.23895 12.7448 3.29577C12.8782 3.30185 13.0334 3.24639 13.1479 3.17266C13.9792 2.63626 14.8017 2.08768 15.6289 1.54452C15.9114 1.35986 16.1959 1.18128 16.4785 1C16.6052 1 16.7312 1 16.8579 1ZM21.9946 29.7451V29.7465C22.5732 29.7796 23.1518 29.804 23.729 29.8493C23.9377 29.8655 24.0461 29.8046 24.141 29.6112C24.6179 28.6398 25.1186 27.68 25.5976 26.71C25.7399 26.4219 25.9418 26.2257 26.2304 26.0837C27.1931 25.6108 28.1443 25.1143 29.1091 24.6449C29.3258 24.5394 29.3834 24.4176 29.3679 24.1863C29.294 23.0844 29.2256 21.9825 29.1897 20.8793C29.1815 20.6358 29.2635 20.3551 29.3943 20.1481C29.9823 19.2139 30.5982 18.2974 31.2161 17.3822C31.3285 17.2158 31.3258 17.1035 31.2147 16.9391C30.6029 16.0327 30.0088 15.1148 29.3977 14.2078C29.231 13.9602 29.1578 13.7059 29.1768 13.4089C29.2452 12.307 29.2974 11.2038 29.3685 10.1019C29.3821 9.89288 29.3258 9.78736 29.1314 9.69199C28.1396 9.20632 27.1511 8.71456 26.1768 8.19439C25.9607 8.0794 25.7541 7.8731 25.6389 7.65732C25.1227 6.69477 24.6328 5.71735 24.1525 4.73586C24.0468 4.51941 23.9255 4.45786 23.6931 4.47274C22.5895 4.54511 21.4858 4.61546 20.3808 4.65131C20.1376 4.65943 19.8565 4.57555 19.6485 4.445C18.7128 3.85719 17.7955 3.24165 16.8782 2.62611C16.7142 2.51586 16.6011 2.5118 16.4337 2.62476C15.5266 3.23624 14.6181 3.84705 13.6899 4.42606C13.4649 4.56608 13.1628 4.65672 12.8992 4.64928C11.8051 4.61749 10.7116 4.54511 9.61812 4.47274C9.38709 4.45718 9.26446 4.51603 9.15877 4.73248C8.6791 5.71397 8.19131 6.69207 7.67573 7.65529C7.56056 7.87107 7.35392 8.07737 7.1378 8.19304C6.17304 8.7078 5.1927 9.19347 4.21168 9.67643C4.01656 9.77248 3.93459 9.8753 3.95017 10.1033C4.02266 11.1625 4.06738 12.2238 4.13987 13.2838C4.16494 13.6477 4.08906 13.9555 3.88039 14.2598C3.2747 15.1453 2.6968 16.049 2.09721 16.9378C1.98543 17.1035 1.98475 17.2178 2.09721 17.3836C2.67444 18.2372 3.22254 19.1111 3.81264 19.9553C4.08364 20.3429 4.16832 20.7345 4.13174 21.1972C4.05247 22.203 4.01927 23.2129 3.94949 24.2201C3.93391 24.4494 4.01792 24.5509 4.21236 24.6463C5.19473 25.1279 6.17643 25.6108 7.14186 26.1229C7.35798 26.2379 7.56598 26.4428 7.68115 26.6586C8.20147 27.6313 8.69401 28.6182 9.17978 29.6092C9.2753 29.8046 9.38302 29.8581 9.58966 29.8445C10.6933 29.7742 11.7969 29.7018 12.9019 29.6673C13.1553 29.6592 13.448 29.7438 13.6635 29.879C14.5998 30.4648 15.5178 31.0804 16.4337 31.6979C16.6024 31.8116 16.7156 31.8041 16.8789 31.6946C17.7962 31.079 18.7142 30.4635 19.6491 29.8757C19.8571 29.7451 20.1356 29.6727 20.3829 29.6687C20.9188 29.6612 21.4554 29.7154 21.9919 29.7438L21.9946 29.7451Z"/>
<path d="M15.253 19.8466C15.4511 19.6594 15.6483 19.4723 15.8464 19.2851C17.6947 17.5431 19.5386 15.7957 21.3975 14.0661C21.5956 13.8824 21.8741 13.7394 22.1385 13.6829C22.4905 13.6069 22.7753 13.8047 22.9513 14.1181C23.121 14.421 23.0998 14.7283 22.9 15.0099C22.8053 15.1424 22.6877 15.2615 22.5683 15.3737C20.4008 17.4177 18.2324 19.4608 16.0622 21.5013C15.3777 22.1449 14.9771 22.1308 14.3183 21.4553C13.2544 20.3649 12.1897 19.2745 11.1285 18.1814C11.0055 18.0543 10.8844 17.9183 10.7933 17.7673C10.5934 17.4336 10.6589 17.0221 10.9348 16.7466C11.2098 16.4712 11.6272 16.4014 11.9571 16.6027C12.118 16.7007 12.2542 16.8438 12.3948 16.9727C13.3774 17.8724 14.359 18.7739 15.3406 19.6745C15.3114 19.7319 15.2822 19.7892 15.253 19.8466Z"/>
</mask>
<path d="M16.8579 1C17.9629 1.7285 19.0651 2.46107 20.1762 3.18078C20.2968 3.25856 20.4682 3.29915 20.6132 3.29238C21.8341 3.23692 23.0536 3.16725 24.2738 3.09893C24.6565 3.07728 24.9092 3.24706 25.0786 3.58595C25.6003 4.62899 26.1355 5.66526 26.6538 6.71033C26.7622 6.92881 26.9024 7.07627 27.1233 7.18518C28.17 7.70196 29.2059 8.24039 30.2527 8.75718C30.6375 8.94725 30.7737 9.23202 30.7459 9.6487C30.6653 10.8554 30.5975 12.0628 30.5392 13.2709C30.5332 13.4028 30.5975 13.5557 30.672 13.6714C31.3123 14.6603 31.9573 15.6452 32.6117 16.6246C32.8583 16.9933 32.8576 17.3335 32.6104 17.7015C31.9593 18.6701 31.3143 19.6435 30.6836 20.6256C30.5846 20.7799 30.5264 20.9936 30.5338 21.1762C30.5826 22.3424 30.6443 23.5085 30.7249 24.6726C30.7561 25.1238 30.5867 25.4018 30.1842 25.5987C29.1355 26.1114 28.0948 26.641 27.0596 27.1801C26.9058 27.2606 26.7568 27.4088 26.6768 27.5623C26.1369 28.5959 25.6166 29.6403 25.0888 30.6799C24.8462 31.1575 24.6681 31.2508 24.1349 31.2184C22.9364 31.146 21.7379 31.0743 20.538 31.0175C20.4066 31.0114 20.2542 31.0797 20.1383 31.1548C19.1505 31.7974 18.162 32.4406 17.1878 33.1029C16.8152 33.3565 16.4913 33.3619 16.1167 33.1069C15.1336 32.4386 14.1377 31.7872 13.1384 31.1433C13.0097 31.0601 12.8267 31.0181 12.673 31.0249C11.4629 31.0824 10.2536 31.1554 9.04495 31.2258C8.66352 31.2481 8.40878 31.0817 8.23873 30.7415C7.72248 29.7072 7.18861 28.6825 6.67778 27.6455C6.55447 27.3946 6.38577 27.2363 6.13646 27.1138C5.13579 26.6228 4.15071 26.0999 3.14598 25.6162C2.70425 25.4039 2.53217 25.1028 2.56672 24.6165C2.64937 23.4625 2.70832 22.3072 2.75574 21.1512C2.76319 20.9686 2.70019 20.7562 2.60059 20.6013C1.9773 19.6266 1.34451 18.6579 0.694115 17.7015C0.432601 17.3173 0.436666 16.9865 0.69818 16.6036C1.35671 15.6404 1.99694 14.6637 2.62973 13.6829C2.71848 13.5455 2.772 13.3541 2.76523 13.1911C2.71441 12.0358 2.6575 10.8798 2.57214 9.72649C2.53555 9.22932 2.70357 8.91681 3.15817 8.69765C4.20965 8.19101 5.24758 7.65664 6.28483 7.12092C6.41355 7.05463 6.53821 6.93084 6.60461 6.803C7.15067 5.74846 7.68928 4.69054 8.21366 3.62518C8.41217 3.22204 8.70078 3.06173 9.14861 3.09284C10.3464 3.17536 11.5456 3.23895 12.7448 3.29577C12.8782 3.30185 13.0334 3.24639 13.1479 3.17266C13.9792 2.63626 14.8017 2.08768 15.6289 1.54452C15.9114 1.35986 16.1959 1.18128 16.4785 1C16.6052 1 16.7312 1 16.8579 1ZM21.9946 29.7451V29.7465C22.5732 29.7796 23.1518 29.804 23.729 29.8493C23.9377 29.8655 24.0461 29.8046 24.141 29.6112C24.6179 28.6398 25.1186 27.68 25.5976 26.71C25.7399 26.4219 25.9418 26.2257 26.2304 26.0837C27.1931 25.6108 28.1443 25.1143 29.1091 24.6449C29.3258 24.5394 29.3834 24.4176 29.3679 24.1863C29.294 23.0844 29.2256 21.9825 29.1897 20.8793C29.1815 20.6358 29.2635 20.3551 29.3943 20.1481C29.9823 19.2139 30.5982 18.2974 31.2161 17.3822C31.3285 17.2158 31.3258 17.1035 31.2147 16.9391C30.6029 16.0327 30.0088 15.1148 29.3977 14.2078C29.231 13.9602 29.1578 13.7059 29.1768 13.4089C29.2452 12.307 29.2974 11.2038 29.3685 10.1019C29.3821 9.89288 29.3258 9.78736 29.1314 9.69199C28.1396 9.20632 27.1511 8.71456 26.1768 8.19439C25.9607 8.0794 25.7541 7.8731 25.6389 7.65732C25.1227 6.69477 24.6328 5.71735 24.1525 4.73586C24.0468 4.51941 23.9255 4.45786 23.6931 4.47274C22.5895 4.54511 21.4858 4.61546 20.3808 4.65131C20.1376 4.65943 19.8565 4.57555 19.6485 4.445C18.7128 3.85719 17.7955 3.24165 16.8782 2.62611C16.7142 2.51586 16.6011 2.5118 16.4337 2.62476C15.5266 3.23624 14.6181 3.84705 13.6899 4.42606C13.4649 4.56608 13.1628 4.65672 12.8992 4.64928C11.8051 4.61749 10.7116 4.54511 9.61812 4.47274C9.38709 4.45718 9.26446 4.51603 9.15877 4.73248C8.6791 5.71397 8.19131 6.69207 7.67573 7.65529C7.56056 7.87107 7.35392 8.07737 7.1378 8.19304C6.17304 8.7078 5.1927 9.19347 4.21168 9.67643C4.01656 9.77248 3.93459 9.8753 3.95017 10.1033C4.02266 11.1625 4.06738 12.2238 4.13987 13.2838C4.16494 13.6477 4.08906 13.9555 3.88039 14.2598C3.2747 15.1453 2.6968 16.049 2.09721 16.9378C1.98543 17.1035 1.98475 17.2178 2.09721 17.3836C2.67444 18.2372 3.22254 19.1111 3.81264 19.9553C4.08364 20.3429 4.16832 20.7345 4.13174 21.1972C4.05247 22.203 4.01927 23.2129 3.94949 24.2201C3.93391 24.4494 4.01792 24.5509 4.21236 24.6463C5.19473 25.1279 6.17643 25.6108 7.14186 26.1229C7.35798 26.2379 7.56598 26.4428 7.68115 26.6586C8.20147 27.6313 8.69401 28.6182 9.17978 29.6092C9.2753 29.8046 9.38302 29.8581 9.58966 29.8445C10.6933 29.7742 11.7969 29.7018 12.9019 29.6673C13.1553 29.6592 13.448 29.7438 13.6635 29.879C14.5998 30.4648 15.5178 31.0804 16.4337 31.6979C16.6024 31.8116 16.7156 31.8041 16.8789 31.6946C17.7962 31.079 18.7142 30.4635 19.6491 29.8757C19.8571 29.7451 20.1356 29.6727 20.3829 29.6687C20.9188 29.6612 21.4554 29.7154 21.9919 29.7438L21.9946 29.7451Z" fill="white" fill-opacity="0.8"/>
<path d="M15.253 19.8466C15.4511 19.6594 15.6483 19.4723 15.8464 19.2851C17.6947 17.5431 19.5386 15.7957 21.3975 14.0661C21.5956 13.8824 21.8741 13.7394 22.1385 13.6829C22.4905 13.6069 22.7753 13.8047 22.9513 14.1181C23.121 14.421 23.0998 14.7283 22.9 15.0099C22.8053 15.1424 22.6877 15.2615 22.5683 15.3737C20.4008 17.4177 18.2324 19.4608 16.0622 21.5013C15.3777 22.1449 14.9771 22.1308 14.3183 21.4553C13.2544 20.3649 12.1897 19.2745 11.1285 18.1814C11.0055 18.0543 10.8844 17.9183 10.7933 17.7673C10.5934 17.4336 10.6589 17.0221 10.9348 16.7466C11.2098 16.4712 11.6272 16.4014 11.9571 16.6027C12.118 16.7007 12.2542 16.8438 12.3948 16.9727C13.3774 17.8724 14.359 18.7739 15.3406 19.6745C15.3114 19.7319 15.2822 19.7892 15.253 19.8466Z" fill="white" fill-opacity="0.8"/>
<path d="M16.8579 1C17.9629 1.7285 19.0651 2.46107 20.1762 3.18078C20.2968 3.25856 20.4682 3.29915 20.6132 3.29238C21.8341 3.23692 23.0536 3.16725 24.2738 3.09893C24.6565 3.07728 24.9092 3.24706 25.0786 3.58595C25.6003 4.62899 26.1355 5.66526 26.6538 6.71033C26.7622 6.92881 26.9024 7.07627 27.1233 7.18518C28.17 7.70196 29.2059 8.24039 30.2527 8.75718C30.6375 8.94725 30.7737 9.23202 30.7459 9.6487C30.6653 10.8554 30.5975 12.0628 30.5392 13.2709C30.5332 13.4028 30.5975 13.5557 30.672 13.6714C31.3123 14.6603 31.9573 15.6452 32.6117 16.6246C32.8583 16.9933 32.8576 17.3335 32.6104 17.7015C31.9593 18.6701 31.3143 19.6435 30.6836 20.6256C30.5846 20.7799 30.5264 20.9936 30.5338 21.1762C30.5826 22.3424 30.6443 23.5085 30.7249 24.6726C30.7561 25.1238 30.5867 25.4018 30.1842 25.5987C29.1355 26.1114 28.0948 26.641 27.0596 27.1801C26.9058 27.2606 26.7568 27.4088 26.6768 27.5623C26.1369 28.5959 25.6166 29.6403 25.0888 30.6799C24.8462 31.1575 24.6681 31.2508 24.1349 31.2184C22.9364 31.146 21.7379 31.0743 20.538 31.0175C20.4066 31.0114 20.2542 31.0797 20.1383 31.1548C19.1505 31.7974 18.162 32.4406 17.1878 33.1029C16.8152 33.3565 16.4913 33.3619 16.1167 33.1069C15.1336 32.4386 14.1377 31.7872 13.1384 31.1433C13.0097 31.0601 12.8267 31.0181 12.673 31.0249C11.4629 31.0824 10.2536 31.1554 9.04495 31.2258C8.66352 31.2481 8.40878 31.0817 8.23873 30.7415C7.72248 29.7072 7.18861 28.6825 6.67778 27.6455C6.55447 27.3946 6.38577 27.2363 6.13646 27.1138C5.13579 26.6228 4.15071 26.0999 3.14598 25.6162C2.70425 25.4039 2.53217 25.1028 2.56672 24.6165C2.64937 23.4625 2.70832 22.3072 2.75574 21.1512C2.76319 20.9686 2.70019 20.7562 2.60059 20.6013C1.9773 19.6266 1.34451 18.6579 0.694115 17.7015C0.432601 17.3173 0.436666 16.9865 0.69818 16.6036C1.35671 15.6404 1.99694 14.6637 2.62973 13.6829C2.71848 13.5455 2.772 13.3541 2.76523 13.1911C2.71441 12.0358 2.6575 10.8798 2.57214 9.72649C2.53555 9.22932 2.70357 8.91681 3.15817 8.69765C4.20965 8.19101 5.24758 7.65664 6.28483 7.12092C6.41355 7.05463 6.53821 6.93084 6.60461 6.803C7.15067 5.74846 7.68928 4.69054 8.21366 3.62518C8.41217 3.22204 8.70078 3.06173 9.14861 3.09284C10.3464 3.17536 11.5456 3.23895 12.7448 3.29577C12.8782 3.30185 13.0334 3.24639 13.1479 3.17266C13.9792 2.63626 14.8017 2.08768 15.6289 1.54452C15.9114 1.35986 16.1959 1.18128 16.4785 1C16.6052 1 16.7312 1 16.8579 1ZM21.9946 29.7451V29.7465C22.5732 29.7796 23.1518 29.804 23.729 29.8493C23.9377 29.8655 24.0461 29.8046 24.141 29.6112C24.6179 28.6398 25.1186 27.68 25.5976 26.71C25.7399 26.4219 25.9418 26.2257 26.2304 26.0837C27.1931 25.6108 28.1443 25.1143 29.1091 24.6449C29.3258 24.5394 29.3834 24.4176 29.3679 24.1863C29.294 23.0844 29.2256 21.9825 29.1897 20.8793C29.1815 20.6358 29.2635 20.3551 29.3943 20.1481C29.9823 19.2139 30.5982 18.2974 31.2161 17.3822C31.3285 17.2158 31.3258 17.1035 31.2147 16.9391C30.6029 16.0327 30.0088 15.1148 29.3977 14.2078C29.231 13.9602 29.1578 13.7059 29.1768 13.4089C29.2452 12.307 29.2974 11.2038 29.3685 10.1019C29.3821 9.89288 29.3258 9.78736 29.1314 9.69199C28.1396 9.20632 27.1511 8.71456 26.1768 8.19439C25.9607 8.0794 25.7541 7.8731 25.6389 7.65732C25.1227 6.69477 24.6328 5.71735 24.1525 4.73586C24.0468 4.51941 23.9255 4.45786 23.6931 4.47274C22.5895 4.54511 21.4858 4.61546 20.3808 4.65131C20.1376 4.65943 19.8565 4.57555 19.6485 4.445C18.7128 3.85719 17.7955 3.24165 16.8782 2.62611C16.7142 2.51586 16.6011 2.5118 16.4337 2.62476C15.5266 3.23624 14.6181 3.84705 13.6899 4.42606C13.4649 4.56608 13.1628 4.65672 12.8992 4.64928C11.8051 4.61749 10.7116 4.54511 9.61812 4.47274C9.38709 4.45718 9.26446 4.51603 9.15877 4.73248C8.6791 5.71397 8.19131 6.69207 7.67573 7.65529C7.56056 7.87107 7.35392 8.07737 7.1378 8.19304C6.17304 8.7078 5.1927 9.19347 4.21168 9.67643C4.01656 9.77248 3.93459 9.8753 3.95017 10.1033C4.02266 11.1625 4.06738 12.2238 4.13987 13.2838C4.16494 13.6477 4.08906 13.9555 3.88039 14.2598C3.2747 15.1453 2.6968 16.049 2.09721 16.9378C1.98543 17.1035 1.98475 17.2178 2.09721 17.3836C2.67444 18.2372 3.22254 19.1111 3.81264 19.9553C4.08364 20.3429 4.16832 20.7345 4.13174 21.1972C4.05247 22.203 4.01927 23.2129 3.94949 24.2201C3.93391 24.4494 4.01792 24.5509 4.21236 24.6463C5.19473 25.1279 6.17643 25.6108 7.14186 26.1229C7.35798 26.2379 7.56598 26.4428 7.68115 26.6586C8.20147 27.6313 8.69401 28.6182 9.17978 29.6092C9.2753 29.8046 9.38302 29.8581 9.58966 29.8445C10.6933 29.7742 11.7969 29.7018 12.9019 29.6673C13.1553 29.6592 13.448 29.7438 13.6635 29.879C14.5998 30.4648 15.5178 31.0804 16.4337 31.6979C16.6024 31.8116 16.7156 31.8041 16.8789 31.6946C17.7962 31.079 18.7142 30.4635 19.6491 29.8757C19.8571 29.7451 20.1356 29.6727 20.3829 29.6687C20.9188 29.6612 21.4554 29.7154 21.9919 29.7438L21.9946 29.7451Z" stroke="white" stroke-opacity="0.8" stroke-linecap="round" stroke-linejoin="round" mask="url(#path-1-outside-1_3280_2292)"/>
<path d="M15.253 19.8466C15.4511 19.6594 15.6483 19.4723 15.8464 19.2851C17.6947 17.5431 19.5386 15.7957 21.3975 14.0661C21.5956 13.8824 21.8741 13.7394 22.1385 13.6829C22.4905 13.6069 22.7753 13.8047 22.9513 14.1181C23.121 14.421 23.0998 14.7283 22.9 15.0099C22.8053 15.1424 22.6877 15.2615 22.5683 15.3737C20.4008 17.4177 18.2324 19.4608 16.0622 21.5013C15.3777 22.1449 14.9771 22.1308 14.3183 21.4553C13.2544 20.3649 12.1897 19.2745 11.1285 18.1814C11.0055 18.0543 10.8844 17.9183 10.7933 17.7673C10.5934 17.4336 10.6589 17.0221 10.9348 16.7466C11.2098 16.4712 11.6272 16.4014 11.9571 16.6027C12.118 16.7007 12.2542 16.8438 12.3948 16.9727C13.3774 17.8724 14.359 18.7739 15.3406 19.6745C15.3114 19.7319 15.2822 19.7892 15.253 19.8466Z" stroke="white" stroke-opacity="0.8" stroke-linecap="round" stroke-linejoin="round" mask="url(#path-1-outside-1_3280_2292)"/>
</svg>
