<svg width="28" height="34" viewBox="0 0 28 34" fill="none" xmlns="http://www.w3.org/2000/svg">
<path d="M13.7284 33.0005C12.671 32.5547 11.5899 32.1579 10.5604 31.6554C5.6898 29.2781 2.56251 25.4862 1.27219 20.2303C0.828913 18.4238 0.559539 16.5876 0.526095 14.7328C0.478666 12.0885 0.509069 9.44304 0.515758 6.79817C0.517582 6.10418 0.979105 5.6826 1.72946 5.64152C2.53515 5.59804 3.34388 5.58415 4.14531 5.49959C7.42158 5.15592 10.3111 3.92921 12.758 1.71559C12.8899 1.5966 13.0176 1.47279 13.1502 1.3544C13.6865 0.875439 14.2605 0.889331 14.8126 1.35138C15.5168 1.94088 16.2094 2.55272 16.9634 3.07396C18.8636 4.38825 20.9973 5.13538 23.2848 5.42832C24.2182 5.54791 25.1631 5.58777 26.1044 5.63307C27.0354 5.67837 27.441 6.06673 27.4489 6.9842C27.4671 9.07763 27.5158 11.1717 27.4945 13.2645C27.4689 15.7686 27.2239 18.2522 26.5696 20.6821C25.2306 25.6517 22.2 29.2539 17.5951 31.5551C16.5055 32.0993 15.3544 32.5215 14.2319 32.9999L13.7284 33.0005ZM2.76925 7.90226C2.76378 8.01521 2.75588 8.11849 2.75466 8.22177C2.73764 9.56504 2.71149 10.9083 2.70662 12.2516C2.6975 14.7135 2.83979 17.1602 3.4059 19.5695C4.09606 22.5049 5.46056 25.0526 7.72318 27.0947C9.5115 28.7085 11.599 29.8108 13.8495 30.6334C13.9431 30.6679 14.0805 30.6558 14.1723 30.6129C15.3471 30.0681 16.559 29.5861 17.6797 28.9471C20.1259 27.5525 22.0261 25.6094 23.2964 23.0836C24.5332 20.6241 25.0342 17.981 25.1546 15.2752C25.2598 12.916 25.1942 10.5495 25.2027 8.18614C25.2027 8.08527 25.1893 7.9844 25.1826 7.89139C24.3654 7.80019 23.5737 7.72831 22.7862 7.6208C19.6048 7.18593 16.77 5.95922 14.3104 3.90385C14.0459 3.68279 13.9036 3.69124 13.6445 3.90687C11.2779 5.87829 8.56353 7.10379 5.50799 7.56523C4.60927 7.70113 3.70325 7.78871 2.76804 7.90226H2.76925Z" fill="#DCDDDD"/>
<path d="M12.4673 18.5477C12.5451 18.442 12.6017 18.3387 12.6819 18.259C14.3693 16.5787 16.0604 14.902 17.7478 13.2217C17.9843 12.9862 18.2415 12.8038 18.5905 12.7917C19.0642 12.7754 19.4291 12.9638 19.648 13.383C19.8657 13.7985 19.8261 14.2068 19.5422 14.5837C19.4674 14.6834 19.3768 14.7716 19.288 14.8598C17.3251 16.8112 15.3611 18.7615 13.397 20.7118C12.7069 21.3973 12.1353 21.3992 11.45 20.7185C10.4789 19.7545 9.50723 18.7911 8.53736 17.8259C8.21448 17.5046 8.09956 17.1205 8.22664 16.6826C8.35069 16.2544 8.65229 15.9959 9.08584 15.9047C9.51392 15.8147 9.86356 15.9771 10.1633 16.2755C10.8292 16.9387 11.4974 17.6001 12.1651 18.262C12.2454 18.3418 12.3299 18.4179 12.4673 18.5477Z" fill="#DCDDDD"/>
<path d="M13.7284 33.0005C12.671 32.5547 11.5899 32.1579 10.5604 31.6554C5.6898 29.2781 2.56251 25.4862 1.27219 20.2303C0.828913 18.4238 0.559539 16.5876 0.526095 14.7328C0.478666 12.0885 0.509069 9.44304 0.515758 6.79817C0.517582 6.10418 0.979105 5.6826 1.72946 5.64152C2.53515 5.59804 3.34388 5.58415 4.14531 5.49959C7.42158 5.15592 10.3111 3.92921 12.758 1.71559C12.8899 1.5966 13.0176 1.47279 13.1502 1.3544C13.6865 0.875439 14.2605 0.889331 14.8126 1.35138C15.5168 1.94088 16.2094 2.55272 16.9634 3.07396C18.8636 4.38825 20.9973 5.13538 23.2848 5.42832C24.2182 5.54791 25.1631 5.58777 26.1044 5.63307C27.0354 5.67837 27.441 6.06673 27.4489 6.9842C27.4671 9.07763 27.5158 11.1717 27.4945 13.2645C27.4689 15.7686 27.2239 18.2522 26.5696 20.6821C25.2306 25.6517 22.2 29.2539 17.5951 31.5551C16.5055 32.0993 15.3544 32.5215 14.2319 32.9999L13.7284 33.0005ZM2.76925 7.90226C2.76378 8.01521 2.75588 8.11849 2.75466 8.22177C2.73764 9.56504 2.71149 10.9083 2.70662 12.2516C2.6975 14.7135 2.83979 17.1602 3.4059 19.5695C4.09606 22.5049 5.46056 25.0526 7.72318 27.0947C9.5115 28.7085 11.599 29.8108 13.8495 30.6334C13.9431 30.6679 14.0805 30.6558 14.1723 30.6129C15.3471 30.0681 16.559 29.5861 17.6797 28.9471C20.1259 27.5525 22.0261 25.6094 23.2964 23.0836C24.5332 20.6241 25.0342 17.981 25.1546 15.2752C25.2598 12.916 25.1942 10.5495 25.2027 8.18614C25.2027 8.08527 25.1893 7.9844 25.1826 7.89139C24.3654 7.80019 23.5737 7.72831 22.7862 7.6208C19.6048 7.18593 16.77 5.95922 14.3104 3.90385C14.0459 3.68279 13.9036 3.69124 13.6445 3.90687C11.2779 5.87829 8.56353 7.10379 5.50799 7.56523C4.60927 7.70113 3.70325 7.78871 2.76804 7.90226H2.76925Z" stroke="#DCDDDD" stroke-width="0.2" stroke-linecap="round" stroke-linejoin="round"/>
<path d="M12.4673 18.5477C12.5451 18.442 12.6017 18.3387 12.6819 18.259C14.3693 16.5787 16.0604 14.902 17.7478 13.2217C17.9843 12.9862 18.2415 12.8038 18.5905 12.7917C19.0642 12.7754 19.4291 12.9638 19.648 13.383C19.8657 13.7985 19.8261 14.2068 19.5422 14.5837C19.4674 14.6834 19.3768 14.7716 19.288 14.8598C17.3251 16.8112 15.3611 18.7615 13.397 20.7118C12.7069 21.3973 12.1353 21.3992 11.45 20.7185C10.4789 19.7545 9.50723 18.7911 8.53736 17.8259C8.21448 17.5046 8.09956 17.1205 8.22664 16.6826C8.35069 16.2544 8.65229 15.9959 9.08584 15.9047C9.51392 15.8147 9.86356 15.9771 10.1633 16.2755C10.8292 16.9387 11.4974 17.6001 12.1651 18.262C12.2454 18.3418 12.3299 18.4179 12.4673 18.5477Z" stroke="#DCDDDD" stroke-width="0.2" stroke-linecap="round" stroke-linejoin="round"/>
</svg>
