<svg width="31" height="30" viewBox="0 0 31 30" fill="none" xmlns="http://www.w3.org/2000/svg">
<path d="M22.625 24.75C23.487 24.75 24.3136 25.0924 24.9231 25.7019C25.5326 26.3114 25.875 27.138 25.875 28C25.875 27.138 26.2174 26.3114 26.8269 25.7019C27.4364 25.0924 28.263 24.75 29.125 24.75C28.263 24.75 27.4364 24.4076 26.8269 23.7981C26.2174 23.1886 25.875 22.362 25.875 21.5C25.875 22.362 25.5326 23.1886 24.9231 23.7981C24.3136 24.4076 23.487 24.75 22.625 24.75ZM22.625 5.25C23.487 5.25 24.3136 5.59241 24.9231 6.2019C25.5326 6.8114 25.875 7.63805 25.875 8.5C25.875 7.63805 26.2174 6.8114 26.8269 6.2019C27.4364 5.59241 28.263 5.25 29.125 5.25C28.263 5.25 27.4364 4.90759 26.8269 4.2981C26.2174 3.6886 25.875 2.86195 25.875 2C25.875 2.86195 25.5326 3.6886 24.9231 4.2981C24.3136 4.90759 23.487 5.25 22.625 5.25ZM11.25 24.75C11.25 22.1641 12.2772 19.6842 14.1057 17.8557C15.9342 16.0272 18.4141 15 21 15C18.4141 15 15.9342 13.9728 14.1057 12.1443C12.2772 10.3158 11.25 7.83586 11.25 5.25C11.25 7.83586 10.2228 10.3158 8.39429 12.1443C6.56581 13.9728 4.08586 15 1.5 15C4.08586 15 6.56581 16.0272 8.39429 17.8557C10.2228 19.6842 11.25 22.1641 11.25 24.75Z" stroke="white" stroke-opacity="0.8" stroke-width="3" stroke-linecap="round" stroke-linejoin="round"/>
</svg>
