<svg width="21" height="30" viewBox="0 0 21 30" fill="none" xmlns="http://www.w3.org/2000/svg">
<path d="M10.1667 15C7.86812 15 5.66372 15.9131 4.03841 17.5384C2.41309 19.1637 1.5 21.3681 1.5 23.6667V26.5556C1.5 26.9386 1.65218 27.306 1.92307 27.5769C2.19395 27.8478 2.56135 28 2.94444 28H17.3889C17.772 28 18.1394 27.8478 18.4103 27.5769C18.6812 27.306 18.8333 26.9386 18.8333 26.5556V23.6667C18.8333 21.3681 17.9202 19.1637 16.2949 17.5384C14.6696 15.9131 12.4652 15 10.1667 15ZM10.1667 15C7.86812 15 5.66372 14.0869 4.03841 12.4616C2.41309 10.8363 1.5 8.63188 1.5 6.33333V3.44444C1.5 3.06135 1.65218 2.69395 1.92307 2.42307C2.19395 2.15218 2.56135 2 2.94444 2H17.3889C17.772 2 18.1394 2.15218 18.4103 2.42307C18.6812 2.69395 18.8333 3.06135 18.8333 3.44444V6.33333C18.8333 8.63188 17.9202 10.8363 16.2949 12.4616C14.6696 14.0869 12.4652 15 10.1667 15Z" stroke="white" stroke-opacity="0.8" stroke-width="3" stroke-linecap="round" stroke-linejoin="round"/>
</svg>
