<?xml version="1.0" encoding="UTF-8"?>
<svg id="Layer_1" xmlns="http://www.w3.org/2000/svg" version="1.1" xmlns:xlink="http://www.w3.org/1999/xlink" viewBox="0 0 653 509">
  <!-- Generator: Adobe Illustrator 29.7.1, SVG Export Plug-In . SVG Version: 2.1.1 Build 8)  -->
  <defs>
    <style>
      .st0, .st1 {
        fill: none;
      }

      .st0, .st2 {
        stroke: #1f1f1f;
        stroke-width: 1.81px;
      }

      .st3 {
        fill-rule: evenodd;
      }

      .st3, .st4, .st5, .st6 {
        fill: #fff;
      }

      .st3, .st6 {
        fill-opacity: .1;
      }

      .st7, .st2 {
        fill: #fe6601;
      }

      .st4 {
        fill-opacity: .8;
      }

      .st5 {
        fill-opacity: .05;
      }
    </style>
    <clipPath id="clippath">
      <path class="st1" d="M568.4,228.16l-.64-4.4c0-.35.14-5.91.07-8.31-.07-2.39-2.11-15.42-2.96-16.96-.85-1.55-3.67-3.66-4.09-6.48-.42-2.82,1.84-3.66,3.24-4.65,1.41-.99,1.69-5.77,1.69-6.48s-2.25-6.9-2.82-10.28c-.57-3.38-1.55-5.49-3.24-6.2-1.69-.7-10.43-6.76-13.53-9.15-3.1-2.39-2.82-4.65-6.2-4.93-3.39-.28-5.5,2.96-8.6,2.82,0,0-2.4-.92-3.03-4.01-.63-3.1,7.12-10.42,9.38-12.18,2.25-1.76,8.67-6.19,9.38-8.45s1.2-3.66,1.62-3.66,11.63,8.87,14.94,9.36c3.31.49,11.49,5.28,12.62,6.97,1.13,1.69,4.72,4.93,5.36,6.97.63,2.04,1.69,6.12,4.51,6.12s8.95-1.62,9.45-3.17c.49-1.55,1.41-4.36,1.41-4.36,0,0,2.75,1.05,3.95-.14,1.2-1.2,2.19-6.76,2.75-6.83.57-.07,3.68,0,2.89,2.85-.79,2.85-.85,3.38-1.27,4.59-.42,1.21-.85,6.23-.69,8.34.16,2.11,1.22,5.39.11,6.29-1.11.9-4.28,3.7-4.28,4.8s4.02,2.22,3.86,4.91c-.16,2.69-1.27,3.27-2.65,5.33-1.38,2.06-1.01,6.76-.58,8.92.42,2.17,1.01,4.17.85,5.81-.16,1.64-7.14,3.11-8.99,4.75-1.85,1.64-7.14,7.71-7.61,11.35-.48,3.64.48,6.55.58,9.14.11,2.59.05,8.71.05,9.14s-.47,4.08-1.38,4.12c-.91.04-6.35.27-6.5.27-.16,0-.9-.01-.9-.01,0,0-4-1.31-5.02-1.56-1.02-.25-3.72-.66-3.72-.66h0Z"/>
    </clipPath>
    <clipPath id="clippath-3">
      <path class="st1" d="M568.4,228.16c-2.96-.11-4.33,1.58-5.5,2.32-1.16.74-6.13,2.64-9.09,3.48-2.96.84-11.74,6.44-11.74,6.44,0,0-6.98,1.48-9.2,1.48s-3.49-.95-4.55-1.16c-1.06-.21-4.23.95-6.98,1.9-2.75.95-14.06-.74-14.06-.74l-14.27-35.27s-19.35-4.43-19.78-4.12c0,0,12.26-7.53,17.05-11.33,4.79-3.8,22.42-23.93,24.96-27.03,2.54-3.1,8.74-11.26,10.01-11.97,1.27-.7,2.96.84,6.06.99,3.1.14,5.22-3.1,8.6-2.82,3.38.28,3.1,2.53,6.2,4.93,3.1,2.39,11.84,8.45,13.53,9.15,1.69.7,2.68,2.82,3.24,6.2.57,3.38,2.82,9.58,2.82,10.28s-.28,5.49-1.69,6.48c-1.41.99-3.67,1.83-3.24,4.65.42,2.82,3.24,4.93,4.09,6.48.85,1.55,2.89,14.57,2.96,16.96.07,2.39-.07,7.96-.07,8.31l.64,4.4h0Z"/>
    </clipPath>
    <clipPath id="clippath-6">
      <path class="st1" d="M84.73,272.85s5.71-.63,5.71,1.27.95,15.52,2.85,15.84c1.9.32,5.71-3.8,9.52-5.7,3.81-1.9,4.12.32,5.07,2.85.95,2.54,1.27,8.55,0,10.45-1.27,1.9.83,8.24.83,8.24,0,0,1.38,7.29,1.38,8.55s1.59,4.75,4.12,5.7c2.54.95,5.07,3.48,8.25,2.22,3.17-1.27,3.17-3.8,6.66-3.48,3.49.31,7.29,1.96,11.1,3.83,3.81,1.87,5.71-.29,9.52,0,3.81.29,6.66,2.53,9.52.77,2.85-1.75,15.23-8.72,19.35-9.67,4.12-.95,14.25-6.67,16.79-8.36,2.54-1.69,4.23-.42,4.44-2.32.21-1.9,1.69-7.6,3.38-7.6s6.34.87,7.83,2.97c1.48,2.1,4.65,3.57,9.3,3.37,4.65-.21,2.43.84,8.14.95,5.71.11,10.68-.85,14.17-.95,3.49-.11,8.88-2.54,11.84-1.37,2.96,1.16,4.23,2.01,6.34.63,2.12-1.37,8.57-3.46,10.57-2.63,2.01.83,5.82,4.95,8.88,6.43s5.39.95,10.89-.21c5.5-1.16,13.85-2.43,15.65-1.05,1.8,1.37,9.09,7.5,12.9,8.13,3.81.63,8.77,0,11.21-.63,2.43-.64,7.4.21,8.99.32,1.59.11,16.39-.84,17.76-1.16,1.38-.32,5.5-4.12,8.67-4.33,3.17-.21,10.36-1.27,13.11-2.85,2.75-1.58,11.31-8.45,10.89-10.35-.42-1.9-8.04-7.39-9.09-9.08-1.06-1.69,0-4.33,1.9-4.96,1.9-.63,11.53,7.81,13.22,8.97,1.69,1.16,4.33,2.22,6.56,1.9,2.22-.32,11.53-3.06,11.53-3.06,0,0,10.04-15.84,10.36-17.32.32-1.48-2.54-1.37-7.72-3.38-5.18-2.01-9.73-4.96-9.73-5.81s1.27-4.65,3.81-5.59c2.54-.95,4.23,2.32,6.24,3.8,2.01,1.48,8.14,5.07,10.68,5.07s9.41-3.59,9.83-6.44,1.16-6.86,3.17-8.76c2.01-1.9,2.54-2.01,2.43-6.65-.11-4.65,6.03-6.33,6.03-8.87s-.95-5.39,0-7.92c.95-2.53,0-10.24,2.96-12.36,2.96-2.11,9.52-4.12,11.74-4.43,2.22-.32,8.46-4.96,8.88-5.28s19.77,4.12,19.77,4.12l14.27,35.27s11.31,1.69,14.06.74c2.75-.95,5.92-2.11,6.98-1.9,1.06.21,2.33,1.16,4.55,1.16s9.2-1.48,9.2-1.48c0,0,8.77-5.6,11.74-6.44,2.96-.84,7.93-2.74,9.09-3.48,1.16-.74,2.54-2.43,5.5-2.32,2.96.11,8.46,2.11,8.77,2.22.32.11,8.57-.32,8.57-.32,0,0,4.23,1.48,2.11,5.49-2.11,4.01-4.65,7.81-5.29,10.35-.63,2.54-2.01,13.36-1.06,15.39.95,2.04,4.23,6.36,4.44,9.64.21,3.27-2.11,9.61-2.96,13.3-.85,3.7-.74,6.33,2.22,6.97,2.96.64,5.82.42,8.04-1.27,2.22-1.69,3.06-3.9,5.92-2.32,2.85,1.58,4.55,5.7,4.65,9.4.11,3.7,3.17,9.29,4.33,10.35,1.16,1.05-5.29,5.81-10.15,6.97-4.86,1.16-8.77,4.54-11,4.75-2.22.21-5.82-4.65-7.19-4.44-1.38.21-14.59,1.16-15.33,1.37-.74.21-5.6,3.48-8.78,4.65-3.17,1.16-5.6,1.37-7.93,2.74-2.33,1.37.11,2.54,2.43,5.07,2.32,2.53,5.6,9.4,5.6,12.46s-1.38,11.3-2.96,12.99c-1.59,1.69-2.22,4.01-3.7,6.33-1.48,2.32-1.06,4.54-1.48,7.5-.42,2.96-.53,9.4-4.02,12.25-3.49,2.85-7.72,6.23-7.83,9.5-.11,3.27-6.34,22.07-7.19,23.44-.85,1.37-8.04,15.63-8.46,16.9-.42,1.27-5.29,14.99-5.29,16.68s-.21,24.08-.21,24.08c0,0-1.69,4.96-2.11,5.7-.42.74,1.27,4.22.42,5.92-.85,1.69-26.75,25.97-26.75,25.97,0,0-54.46-11.51-59.85-12.88-5.39-1.37-100.77-19.64-103.52-20.38-2.75-.74-91.89-16.37-91.89-16.37l-30.35-6.02-53.4-67.37-48.64-62.83-15.12-19.22.74-16.58.56-13.71v-.03Z"/>
    </clipPath>
    <clipPath id="clippath-9">
      <path class="st1" d="M617.8,52.28c-2.04.77-3.45,5.14-3.59,7.32h0c-.14,2.18-3.1,7.46-3.88,9.22h0c-.77,1.76-1.27,7.46-2.54,9.71h0c-1.27,2.25-11.7,12.67-14.66,14.86h0c-2.92,2.15-19.71,12.73-20.16,13.02h0s0,0,0,0h0c-1.21.42-3.52,1.97-4.86,3.73h0c-1.34,1.76-5.42,8.23-7.26,8.8h0c-1.83.57-6.27.71-7.26.99h0c-.98.28-4.76,4.93-4.76,4.93h0c.42,0,11.63,8.87,14.94,9.36h0c3.31.49,11.49,5.28,12.62,6.97h0c1.13,1.69,4.72,4.93,5.36,6.97h0c.63,2.04,1.69,6.13,4.51,6.13h0c2.82,0,8.95-1.62,9.45-3.17h0c.49-1.55,1.41-4.36,1.41-4.36h0s.43.19.71.21h0c.28.03,1.86.19,2.55,0h0c.69-.19,1.49-2.23,1.68-2.76h0c.18-.52.85-3.58,1.33-4.11h0c.48-.53,1.31-.26,2.26.05h0c.27.09.62.28,1.02.55h0c-.02.19-.32,2.65-.43,3.04h0c-.11.41-1.21,4.56-1.32,5.3h0c-.11.74-.33,3.76-.37,4.9h0c-.04,1.13.4,4.16.56,5.24h0c.16,1.08-.24,2.48-.24,2.48h0s.08,0,.22-.02h0c-.27.03-.44.05-.44.05h0c-1.11.9-4.28,3.7-4.28,4.8h0c0,1.11,4.02,2.22,3.86,4.91h0c-.16,2.69-1.27,3.27-2.65,5.33h0c-1.38,2.06-1.01,6.76-.58,8.92h0c.42,2.17,1.01,4.17.85,5.81h0s1.08,2.18,1.82,2.91h0c.74.74,2.54.42,5.29,2.25h0c2.75,1.82,1.58,4.93,1.48,7.36h0c-.11,2.43,5.6,8.98,6.34,9.4h0s.1.04.2.06h-.01s0,0,0,0c0,0-1.29,7.29-1.02,8.92h0c.26,1.64,3.17,2.96,4.47,2.96h0c1.29,0,6.79-3.64,7.53-4.96h0c.74-1.32,1.85-6.93,1.85-6.93h0l-.83.02c1.2-.03,1.99-.06,1.99-.06h0s6.34-1.48,8.88-4.01h0c.51-.51.67-1.02.59-1.52h0s0,.02,0,.02h0s2.32-.71,3.16-1.03h0c.85-.32,1.9-1.03,2.22-1.82h0c.31-.77.98-3.28,1.01-3.39h0c.33-.04.52-.1.52-.17h0c.05-.58-.21-2.8-.32-4.54h0c-.11-1.74-.37-3.12-.37-3.12h-.03c1.51.27,2.8.43,3.09.21h0c.79-.58.74-7.76.74-7.76h0l-.37-5.17v-8.02s.11-11.51,1.27-13.62h0c1.13-2.06.91-9.73.9-10.12h0s0-.01,0-.02h0c0-.53-.32-3.7-1.53-6.07h0c-1.14-2.23-1.22-5.71-1.23-6.14h0c.05-.04.09-.08.11-.11h0c.49-.7.49-7.04.49-8.8h0c0-1.76-.92-9.58-1.2-11.05h0c-.28-1.48-6.77-6.26-8.45-6.83h0c-1.68-.56-6,.49-7.41.7h0c-1.38.21-6.1-4.46-6.32-4.68h0s.04,0,.04,0h0s-.57-2.29-.92-4.33h0c-.35-2.04-.77-10.91-.92-13.73h0c-.14-2.82,1.06-13.45,1.76-17.67h0c.71-4.22,1.76-11.33.49-15.42h0c-.82-2.63-3.63-3.39-6.07-3.39h0c-1.35,0-2.58.23-3.31.51ZM610.28,127.61c2.32-.38,4.61-1.71,6.5-1.74h0c-1.88.05-4.14,1.36-6.44,1.74h0c-.24.04-.47.06-.7.06h0c.21,0,.43-.02.65-.06ZM592.43,136.76c.34-.42.48-.8.48-1.19h0c0,.39-.13.77-.48,1.19h0c-.68.84-1.4,1.32-1.23,2.01h0c-.17-.69.55-1.17,1.23-2.01ZM647.98,138.11c-2.49,1.56-7.32,4.29-9.06,5.38h0c1.62-1.02,6.48-3.77,9.06-5.38ZM609.65,143.37h.01s-.96-1-1.56-1.57h0c.58.5,1.14,1.05,1.6,1.57h0c.83.92,3.64,1.38,6.16,1.34h0c-.12,0-.24,0-.35,0h0c-2.44,0-5.06-.45-5.86-1.34ZM624.93,147.54c.93-.07,1.72.04,2.38.24h0c-.77-.17-1.64-.24-2.43-.24h0s.03,0,.05,0ZM622.36,147.89c-.31.2-.56.52-.75.88h0c.16-.46.4-.72.75-.88ZM636.98,148.59s-.06.05-.1.06h0c-.91.45-5.33,2.41-6.07,2.74h0s-.02-.06-.02-.08h0s.03.06.03.06h0s5.16-2.28,6.17-2.78ZM629.2,148.76s-.01-.01-.02-.02h0s.02.01.03.02h0c.31.24.63.73.91,1.22h0c-.27-.39-.58-.78-.92-1.22ZM621.18,150.01c-.04.24-.05.44-.03.58h0c-.06-.14-.03-.33.03-.58ZM621.76,150.89c.76.14,2.14.37,3.21.88h0c-.57-.22-2.37-.69-3.21-.88ZM630.98,152.53c0,.05.01.1.01.13h0c0,.08,0,.28-.02.52h0c.01-.23.02-.45,0-.66ZM626.05,153.18c-.08.99-.99,2.31-1.65,3.24h0c.81-1.3,1.5-2.67,1.65-3.24ZM626.51,162.48c.58-.27,3.7-.58,3.7-.58h0s.53-6.07.74-8.45h0s0-.05,0-.07h0c-.05.67-.13,1.55-.13,1.55h0l-.55,6.28h0s-.06.69-.06.69c0,0-2.22.27-3.06.41h0c-.61.1-.82.41-.91.67h0c.1-.29.19-.48.28-.52ZM622.91,158.48c-.65.82-1.5,1.79-2.4,2.51h0c.82-.71,1.67-1.67,2.4-2.51ZM608.41,161.42c.44-.02.86-.01,1.25.01h0c-.44-.02-.9-.02-1.36,0h0s.07,0,.11,0ZM611.55,161.7c.43.09.81.19,1.15.26h0c1,.23,4.77.17,6.02.04h0s.01,0,.02,0h0c-.12.03-.24.05-.36.07h0c-.79.08-1.7.13-2.62.13h0c-1.52,0-3.07-.14-4.2-.5ZM626.19,163.11c-.02.05-.03.1-.04.14h0c-.05.18-.45,2.14-.8,3.97h0c.26-1.63.57-3.25.84-4.11ZM641.27,180.76c-.02-.61.42-.83,1.41-.77h0c-.71-.03-1.31.13-1.41.77h0ZM643.93,180.15c.19.03.39.07.6.11h0c-.18-.03-.39-.07-.6-.11ZM625.55,182.36s0,.01,0,.01h0l5.44,4.41s1.43,1.63,2.96,3.32h0l-.32-.35-1.71-1.92-1.15-1.23-2.29-1.86s-2.57-2.08-2.71-2.2h0c-.14-.12-.38.39-.38.39h0s0,.01-.02.04h0c.09-.23.16-.44.19-.62ZM625.03,183.68c-.25.54-.56,1.21-.65,1.48h0s0,0,0,0h0c.1-.42.39-.96.65-1.48ZM641.85,185.93s0,0,0,0h0v.04s0-.03,0-.04ZM624.58,186.27l1.26,2.46c-.5-.89-.98-1.79-1.26-2.46ZM626.08,189.14c.28.47.83,1.41,1.22,2.06h0c-.31-.51-.77-1.26-1.22-2.06ZM641.94,191.64s-.08.09-.13.13h0s-.01,0-.02.01h0c.05-.05.1-.09.14-.14ZM635.94,192.27l-.14-.15c.29.31.55.58.79.82h0s-.65-.67-.65-.67ZM640.94,192.46s-.02.01-.02.02h0s.03,0,.05.01h-.05s-.03,0-.09.04h0s.05-.04.08-.05h0s0,0,0,0h0s0,0,0,0h0s.02-.01.02-.02ZM636.59,192.94h0s-1.71,2.14-1.71,2.14c0,0-.77,1.21-.81,1.83h0c0-1.24,2.4-3.84,2.52-3.97ZM639.99,193.03c-.17.09-.33.16-.47.21h0s-.02,0-.04.01h0c.17-.07.34-.14.5-.22ZM628.38,193.24c.1.17.16.39.2.63h0c-.05-.21-.12-.42-.2-.63ZM637.7,193.51c.1.02.2.03.3.03h0c-.11,0-.21,0-.3-.03ZM628.36,195.64c.1-.12.18-.25.23-.4h0s0,.02,0,.02h0c-.09.34-.64.97-.88,1.4h0c-.24.43-.69,1.9-.76,2.31h0s0,.04,0,.06h0c.12-1.23.83-2.7,1.42-3.39ZM634.08,197.09s0,0,0,0h0c.15.51,1.15,2.05,1.21,2.12h0c-.57-.73-1.12-1.49-1.21-2.13ZM635.31,199.24c.05.07.23.29.43.55h0c-.14-.18-.28-.36-.43-.55ZM636.12,200.31c.11.15.2.28.24.36h0s0,0,0,0h0c-.07-.12-.15-.24-.24-.36ZM627.33,200.61c.37.37,1.16.75,1.77,1.01h0c-.78-.31-1.42-.65-1.77-1.01ZM636.59,201.14c-.03-.08-.06-.16-.11-.25h0c.16.28.34.56.34.56h0s.1.44-.02.84h0c.04-.21.01-.49-.22-1.15ZM638.25,205.41c.07.05.14.09.18.12h0s.02.02.03.02h0c-.07-.05-.14-.1-.22-.14ZM639.15,206.07c.32.26.62.53.79.79h0s0,0,0,.01h0c-.21-.28-.49-.55-.8-.81ZM624.07,213.54h-.49s-.41.01-.41.01c.3,0,.6,0,.9-.01ZM619.78,213.56c.1,0,.2,0,.31,0h-.23s-.07,0-.07,0ZM167.6,248.55c-2.22.32-3.7,3.8-3.7,4.75h0c0,.95,7.4,6.76,7.4,6.76h0s3.28-2.84,3.49-4.64h0c.21-1.8-.21-4.33-.85-5.49h0c-.51-.94-2.89-1.46-4.95-1.46h0c-.49,0-.97.03-1.39.09ZM199.43,274.95s-.32,1.69,0,3.86h0c.32,2.17,6.13,7.55,7.82,6.7h0c1.69-.85,3.7-6.65,3.7-8.55h0c0-1.9-2.43-4.01-5.92-4.75h0c-.33-.07-.66-.1-.97-.1h0c-2.91,0-4.64,2.85-4.64,2.85ZM389.05,274.66c-1.83.85-4.13,4.44-4.13,4.44h0s10.17,7.49,10.17,7.49c0,0,2.14-.1,4.25-.52h0c2.12-.42,1.83-2.81,1.97-4.5h0c.14-1.69-2.54-4.79-4.09-5.91h0c-1.07-.78-3.7-1.36-5.83-1.36h0c-.94,0-1.78.11-2.35.37ZM347.75,287.05c-1.13.85-6.77.99-10.15,1.41h0c-3.36.42-12.02,7.38-12.12,7.46h0l1.55,2.81s8.46,2.96,11.84,3.66h0c3.38.71,7.05-.85,9.02-2.47h0c1.97-1.63,3.67-2.6,4.51-1.47h0c.85,1.12,7.33,1.97,9.73,1.12h0c2.4-.85,3.39-4.79,2.54-6.2h0c-.85-1.41-4.09-2.53-6.2-2.79h0c-2.12-.26-4.93-3.4-6.2-4.81h0c-.33-.37-.72-.52-1.14-.52h0c-1.17,0-2.54,1.16-3.37,1.78ZM325.47,295.92s0,0,0,0h0s0,0,0,0Z"/>
    </clipPath>
    <clipPath id="clippath-12">
      <path class="st1" d="M360.45,39.7c-.15-.08-.27-.2-.4-.31-1.16-1.03-7.23-6.67-7.23-12.23,0-2.17.86-4.25,2.39-5.78,1.53-1.53,3.61-2.39,5.78-2.39s4.25.86,5.78,2.39c1.53,1.53,2.39,3.61,2.39,5.78,0,5.49-5.91,11.06-7.18,12.19-.16.14-.31.29-.5.39-.32.15-.72.14-1.03-.03ZM360.99,30.73c.47,0,.93-.09,1.37-.27.43-.18.83-.44,1.16-.78.33-.33.6-.73.78-1.16.18-.43.27-.9.27-1.37s-.09-.93-.27-1.37c-.18-.43-.44-.83-.78-1.16-.33-.33-.73-.6-1.16-.78-.43-.18-.9-.27-1.37-.27-.95,0-1.86.38-2.53,1.05-.67.67-1.05,1.58-1.05,2.53s.38,1.86,1.05,2.53c.67.67,1.58,1.05,2.53,1.05Z"/>
    </clipPath>
    <clipPath id="clippath-15">
      <path class="st1" d="M261.45,114.96c-.15-.08-.27-.2-.4-.31-1.16-1.03-7.23-6.67-7.23-12.23,0-2.17.86-4.25,2.39-5.78,1.53-1.53,3.61-2.39,5.78-2.39s4.25.86,5.78,2.39c1.53,1.53,2.39,3.61,2.39,5.78,0,5.49-5.91,11.06-7.18,12.19-.16.14-.31.29-.5.39-.32.15-.72.14-1.03-.03ZM261.99,105.99c.47,0,.93-.09,1.37-.27.43-.18.83-.44,1.16-.78.33-.33.6-.73.78-1.16.18-.43.27-.9.27-1.37s-.09-.93-.27-1.37c-.18-.43-.44-.83-.78-1.16-.33-.33-.73-.6-1.16-.78-.43-.18-.9-.27-1.37-.27-.95,0-1.86.38-2.53,1.05-.67.67-1.05,1.58-1.05,2.53s.38,1.86,1.05,2.53c.67.67,1.58,1.05,2.53,1.05Z"/>
    </clipPath>
    <clipPath id="clippath-18">
      <path class="st1" d="M162.45,190.23c-.15-.08-.27-.2-.4-.31-1.16-1.03-7.23-6.67-7.23-12.23,0-2.17.86-4.25,2.39-5.78,1.53-1.53,3.61-2.39,5.78-2.39s4.25.86,5.78,2.39c1.53,1.53,2.39,3.61,2.39,5.78,0,5.49-5.91,11.06-7.18,12.19-.16.14-.31.29-.5.39-.32.15-.72.14-1.03-.03ZM162.99,181.26c.47,0,.93-.09,1.37-.27.43-.18.83-.44,1.16-.78s.6-.73.77-1.16c.18-.43.27-.9.27-1.37s-.09-.94-.27-1.37c-.18-.43-.44-.83-.77-1.16-.33-.33-.73-.59-1.16-.78-.43-.18-.9-.27-1.37-.27-.95,0-1.86.38-2.53,1.05-.67.67-1.05,1.58-1.05,2.53s.38,1.86,1.05,2.53c.67.67,1.58,1.05,2.53,1.05Z"/>
    </clipPath>
  </defs>
  <rect class="st6" x="99.72" y="76.04" width="199.46" height="57.27" rx="14.51" ry="14.51"/>
  <path class="st5" d="M547.81,141.13c.27.26.7.26.96,0,.27-.27.27-.7,0-.96l-.96.96ZM437.53,29.89l.48-.48-.2-.2h-.28v.68ZM373.44,29.89c0,2,1.62,3.63,3.63,3.63s3.63-1.62,3.63-3.63-1.62-3.63-3.63-3.63-3.63,1.62-3.63,3.63ZM520.77,190.46c.27.26.7.26.96,0,.27-.27.27-.7,0-.96l-.96.96ZM436.04,104.77l.48-.48-.2-.2h-.28v.68ZM419.06,333.75c.27.26.7.26.96,0,.27-.27.27-.7,0-.96l-.96.96ZM267.04,180.77l.48-.48-.2-.2h-.28v.68ZM183.72,180.09c-.38,0-.68.3-.68.68s.3.68.68.68v-1.36ZM548.77,140.16l-110.76-110.75-.96.96,110.76,110.75.96-.96ZM437.53,29.21h-60.18v1.36h60.18v-1.36ZM521.73,189.5l-85.21-85.21-.96.96,85.21,85.21.96-.96ZM436.04,104.09h-157.65v1.36h157.65v-1.36ZM420.02,332.79l-152.5-152.5-.96.96,152.5,152.5.96-.96ZM267.04,180.09h-83.32v1.36h83.32v-1.36ZM273.69,104.77c0,2,1.62,3.63,3.63,3.63s3.63-1.62,3.63-3.63-1.62-3.63-3.63-3.63-3.63,1.62-3.63,3.63ZM177.32,180.29c0,2,1.62,3.63,3.63,3.63s3.63-1.62,3.63-3.63-1.62-3.63-3.63-3.63-3.63,1.62-3.63,3.63Z"/>
  <path class="st2" d="M568.4,228.16l-.64-4.4c0-.35.14-5.91.07-8.31-.07-2.39-2.11-15.42-2.96-16.96-.85-1.55-3.67-3.66-4.09-6.48-.42-2.82,1.84-3.66,3.24-4.65,1.41-.99,1.69-5.77,1.69-6.48s-2.25-6.9-2.82-10.28c-.57-3.38-1.55-5.49-3.24-6.2-1.69-.7-10.43-6.76-13.53-9.15-3.1-2.39-2.82-4.65-6.2-4.93-3.39-.28-5.5,2.96-8.6,2.82,0,0-2.4-.92-3.03-4.01-.63-3.1,7.12-10.42,9.38-12.18,2.25-1.76,8.67-6.19,9.38-8.45.7-2.25,1.2-3.66,1.62-3.66s11.63,8.87,14.94,9.36c3.31.49,11.49,5.28,12.62,6.97s4.72,4.93,5.36,6.97c.63,2.04,1.69,6.12,4.51,6.12s8.95-1.62,9.45-3.17c.49-1.55,1.41-4.36,1.41-4.36,0,0,2.75,1.05,3.95-.14,1.2-1.2,2.19-6.76,2.75-6.83.57-.07,3.68,0,2.89,2.85-.79,2.85-.85,3.38-1.27,4.6-.42,1.21-.85,6.23-.69,8.34.16,2.11,1.22,5.39.11,6.29-1.11.9-4.28,3.7-4.28,4.8s4.02,2.22,3.86,4.91c-.16,2.69-1.27,3.27-2.65,5.33-1.38,2.06-1.01,6.76-.58,8.92.42,2.17,1.01,4.17.85,5.81-.16,1.64-7.14,3.11-8.99,4.75-1.85,1.64-7.14,7.71-7.61,11.35-.48,3.64.48,6.55.58,9.14.11,2.59.05,8.71.05,9.14s-.47,4.08-1.38,4.12c-.91.04-6.35.27-6.5.27-.16,0-.9-.01-.9-.01,0,0-4-1.31-5.02-1.56-1.02-.25-3.72-.66-3.72-.66h0Z"/>
  <path class="st2" d="M568.4,228.16c-2.96-.11-4.33,1.58-5.5,2.32-1.16.74-6.13,2.64-9.09,3.48-2.96.84-11.74,6.44-11.74,6.44,0,0-6.98,1.48-9.2,1.48s-3.49-.95-4.55-1.16c-1.06-.21-4.23.95-6.98,1.9-2.75.95-14.06-.74-14.06-.74l-14.27-35.27s-19.35-4.43-19.78-4.12c0,0,12.26-7.53,17.05-11.33,4.79-3.8,22.42-23.93,24.96-27.03,2.54-3.1,8.74-11.26,10.01-11.97,1.27-.7,2.96.84,6.06.99,3.1.14,5.22-3.1,8.6-2.82,3.38.28,3.1,2.54,6.2,4.93,3.1,2.39,11.84,8.45,13.53,9.15,1.69.7,2.68,2.82,3.24,6.2.57,3.38,2.82,9.58,2.82,10.28s-.28,5.49-1.69,6.48c-1.41.99-3.67,1.83-3.24,4.65.42,2.82,3.24,4.93,4.09,6.48.85,1.55,2.89,14.57,2.96,16.97.07,2.39-.07,7.96-.07,8.31l.64,4.4h0Z"/>
  <circle class="st7" cx="397.71" cy="29.77" r="8.99"/>
  <circle class="st7" cx="298.71" cy="104.77" r="8.99"/>
  <circle class="st7" cx="199.71" cy="179.77" r="8.99"/>
  <path class="st2" d="M84.73,272.85s5.71-.63,5.71,1.27.95,15.52,2.85,15.84c1.9.32,5.71-3.8,9.52-5.7,3.81-1.9,4.12.32,5.07,2.85.95,2.54,1.27,8.55,0,10.45-1.27,1.9.83,8.24.83,8.24,0,0,1.38,7.29,1.38,8.55s1.59,4.75,4.12,5.7c2.54.95,5.07,3.48,8.25,2.22,3.17-1.27,3.17-3.8,6.66-3.48,3.49.32,7.29,1.96,11.1,3.83,3.81,1.87,5.71-.29,9.52,0,3.81.29,6.66,2.53,9.52.77,2.85-1.75,15.23-8.72,19.35-9.67,4.12-.95,14.25-6.67,16.79-8.36,2.54-1.69,4.23-.42,4.44-2.32.21-1.9,1.69-7.6,3.38-7.6s6.34.87,7.83,2.97c1.48,2.1,4.65,3.58,9.3,3.37,4.65-.21,2.43.85,8.14.95,5.71.11,10.68-.85,14.17-.95,3.49-.11,8.88-2.54,11.84-1.37,2.96,1.16,4.23,2.01,6.34.63,2.12-1.37,8.57-3.46,10.57-2.63,2.01.83,5.82,4.95,8.88,6.43s5.39.95,10.89-.21c5.5-1.16,13.85-2.43,15.65-1.05,1.8,1.37,9.09,7.5,12.9,8.13,3.81.63,8.77,0,11.21-.63,2.43-.64,7.4.21,8.99.32,1.59.11,16.39-.85,17.76-1.16,1.38-.32,5.5-4.12,8.67-4.33,3.17-.21,10.36-1.27,13.11-2.85,2.75-1.58,11.31-8.45,10.89-10.35-.42-1.9-8.04-7.39-9.09-9.08-1.06-1.69,0-4.33,1.9-4.96,1.9-.63,11.53,7.81,13.22,8.98,1.69,1.16,4.33,2.22,6.56,1.9,2.22-.32,11.53-3.06,11.53-3.06,0,0,10.04-15.84,10.36-17.32.32-1.48-2.54-1.37-7.72-3.38-5.18-2.01-9.73-4.96-9.73-5.81s1.27-4.65,3.81-5.6c2.54-.95,4.23,2.32,6.24,3.8,2.01,1.48,8.14,5.07,10.68,5.07s9.41-3.59,9.83-6.44c.42-2.85,1.16-6.86,3.17-8.76,2.01-1.9,2.54-2.01,2.43-6.65-.11-4.65,6.03-6.33,6.03-8.87s-.95-5.39,0-7.92c.95-2.54,0-10.24,2.96-12.36,2.96-2.11,9.52-4.12,11.74-4.43,2.22-.32,8.46-4.96,8.88-5.28.42-.32,19.77,4.12,19.77,4.12l14.27,35.27s11.31,1.69,14.06.74c2.75-.95,5.92-2.11,6.98-1.9,1.06.21,2.33,1.16,4.55,1.16s9.2-1.48,9.2-1.48c0,0,8.77-5.6,11.74-6.44,2.96-.85,7.93-2.74,9.09-3.48,1.16-.74,2.54-2.43,5.5-2.32,2.96.11,8.46,2.11,8.77,2.22.32.11,8.57-.32,8.57-.32,0,0,4.23,1.48,2.11,5.49-2.11,4.01-4.65,7.81-5.29,10.35-.63,2.54-2.01,13.36-1.06,15.39.95,2.04,4.23,6.36,4.44,9.64.21,3.27-2.11,9.61-2.96,13.3-.85,3.7-.74,6.33,2.22,6.97,2.96.64,5.82.42,8.04-1.27,2.22-1.69,3.06-3.9,5.92-2.32,2.85,1.58,4.55,5.7,4.65,9.4.11,3.7,3.17,9.29,4.33,10.35,1.16,1.05-5.29,5.81-10.15,6.97-4.86,1.16-8.77,4.54-11,4.75-2.22.21-5.82-4.65-7.19-4.43-1.38.21-14.59,1.16-15.33,1.37-.74.21-5.6,3.48-8.78,4.65-3.17,1.16-5.6,1.37-7.93,2.75-2.33,1.37.11,2.53,2.43,5.07,2.32,2.54,5.6,9.4,5.6,12.46s-1.38,11.3-2.96,12.99c-1.59,1.69-2.22,4.01-3.7,6.33-1.48,2.32-1.06,4.54-1.48,7.5-.42,2.96-.53,9.4-4.02,12.25-3.49,2.85-7.72,6.23-7.83,9.5-.11,3.27-6.34,22.07-7.19,23.44s-8.04,15.63-8.46,16.9c-.42,1.27-5.29,14.99-5.29,16.68s-.21,24.08-.21,24.08c0,0-1.69,4.96-2.11,5.7-.42.74,1.27,4.22.42,5.91-.85,1.69-26.75,25.98-26.75,25.98,0,0-54.46-11.51-59.85-12.88-5.39-1.37-100.77-19.64-103.52-20.38-2.75-.74-91.89-16.37-91.89-16.37l-30.35-6.02-53.4-67.37-48.64-62.83-15.12-19.22.74-16.58.56-13.71v-.03Z"/>
  <path class="st7" d="M171.3,260.06s-7.4-5.81-7.4-6.76,1.48-4.43,3.7-4.75c2.22-.32,5.71.21,6.34,1.37.64,1.16,1.06,3.7.85,5.49-.21,1.8-3.49,4.65-3.49,4.65h0Z"/>
  <path class="st7" d="M199.43,274.95s2.11-3.48,5.6-2.74c3.49.74,5.92,2.85,5.92,4.75s-2.01,7.71-3.7,8.55-7.51-4.54-7.82-6.7c-.32-2.17,0-3.86,0-3.86Z"/>
  <path class="st7" d="M325.47,295.92s8.74-7.04,12.12-7.46c3.39-.42,9.02-.56,10.15-1.41s3.24-2.67,4.51-1.27c1.27,1.41,4.09,4.55,6.21,4.81,2.11.26,5.36,1.39,6.2,2.79.85,1.41-.14,5.35-2.54,6.19-2.4.85-8.88,0-9.73-1.12-.85-1.13-2.54-.16-4.51,1.47-1.97,1.63-5.64,3.18-9.02,2.47-3.38-.7-11.84-3.66-11.84-3.66l-1.55-2.82h0Z"/>
  <path class="st7" d="M384.93,279.1s2.29-3.6,4.13-4.44c1.84-.85,6.63-.14,8.18.99,1.55,1.12,4.23,4.23,4.09,5.92-.14,1.69.14,4.08-1.97,4.51-2.11.42-4.25.52-4.25.52l-10.17-7.48h0Z"/>
  <path class="st7" d="M597.11,146.75s-.92,2.82-1.41,4.36c-.49,1.55-6.63,3.17-9.45,3.17s-3.88-4.08-4.51-6.12c-.63-2.04-4.23-5.28-5.36-6.97-1.13-1.69-9.3-6.48-12.62-6.97-3.31-.49-14.52-9.36-14.94-9.36,0,0,3.78-4.65,4.76-4.93.99-.28,5.43-.42,7.26-.99,1.84-.56,5.92-7.04,7.26-8.8,1.34-1.76,3.65-3.31,4.86-3.73,1.21-.42,6,.42,7.83,2.54,1.84,2.11,5.57,9.36,5.71,12.81.14,3.45-1.13,5.84.35,7.25,1.48,1.41,4.51,2.96,5.22,4.36.7,1.41,1.27,2.25.35,3.38-.92,1.13-1.9,1.62-.7,2.82,1.2,1.2,3.88,3.59,3.88,3.59l1.51,3.59h0Z"/>
  <path class="st7" d="M640.91,192.48s8.01,2.11,8.8,1.53c.79-.58.74-7.76.74-7.76l-.37-5.17s-4.38-.6-5.52-.8c-1.14-.2-3.12-.73-3.3.49-.17,1.21.58,5.18.58,5.18l.45,4.54s.04.83-.49,1.29c-.53.45-.9.72-.9.72h0Z"/>
  <path class="st7" d="M636.83,201.45s10.46.58,10.52,0c.05-.58-.21-2.8-.32-4.54-.11-1.74-.37-3.12-.37-3.12l-5.74-1.31s-.91.59-1.4.75c-.49.17-1.42.41-1.89.26-.47-.15-1.04-.56-1.04-.56l-1.71,2.14s-.95,1.51-.8,2.02c.16.52,1.21,2.13,1.21,2.13,0,0,.9,1.12,1.07,1.45.17.33.46.78.46.78Z"/>
  <path class="st7" d="M640.42,207.86s2.32-.71,3.16-1.03c.85-.32,1.9-1.03,2.22-1.82.32-.79,1.01-3.39,1.01-3.39h-5.37l-4.62-.17s.1.43-.02.85c-.12.42-1.06,1.77-1.06,1.77,0,0,2.18,1.1,2.69,1.47.52.37,1.22.87,1.51,1.32.29.45.48,1.01.48,1.01Z"/>
  <path class="st7" d="M616.96,213.43s-1.29,7.29-1.02,8.92c.26,1.64,3.17,2.96,4.47,2.96s6.79-3.64,7.53-4.96c.74-1.32,1.85-6.93,1.85-6.93l-6.21.13-3.73.02-2.89-.13h0Z"/>
  <path class="st7" d="M601.85,191.46c.16-1.64-.42-3.64-.85-5.81-.42-2.17-.79-6.86.58-8.92,1.38-2.06,2.48-2.64,2.65-5.33.16-2.69-3.86-3.8-3.86-4.91s3.17-3.91,4.28-4.8c0,0,5.05-.6,6.84,0,1.8.6,4.76.6,6.87.38,2.12-.21,4.81-3.86,5.55-4.96.74-1.11,3.12-3.96,1.69-4.96-1.42-1.01-4.07-1.21-4.39-1.37-.32-.16.21-2.8,1.59-3.06,1.38-.26,5.29-.37,6.4,1.06,1.11,1.43,1.96,2.32,1.74,4.7-.21,2.38-.74,8.45-.74,8.45,0,0-3.12.32-3.7.58-.58.26-1.69,7.71-1.69,9.35s.69,9.56.74,10.35c.05.79-1.16,2.38-1.22,3.22-.05.85,2.32,4.78,3.12,6.06.79,1.28,1.75,3.18.9,4.19-.85,1-1.96,3.64-1.16,4.8.79,1.16,4.65,2.01,6.87,2.9,2.22.9,8.3,3.48,5.76,6.02-2.54,2.54-8.88,4.01-8.88,4.01,0,0-13.43.42-14.17,0-.74-.42-6.45-6.97-6.34-9.4.11-2.43,1.27-5.54-1.48-7.36-2.75-1.82-4.55-1.51-5.29-2.25-.74-.74-1.82-2.92-1.82-2.92h0Z"/>
  <path class="st7" d="M597.11,146.75l-1.51-3.59s-2.68-2.39-3.88-3.59c-1.2-1.2-.21-1.69.7-2.82.92-1.12.35-1.97-.35-3.38-.7-1.41-3.74-2.96-5.22-4.36-1.48-1.41-.21-3.8-.35-7.25-.14-3.45-3.88-10.7-5.71-12.81-1.83-2.11-6.63-2.96-7.83-2.54,0,0,17.21-10.84,20.17-13.02,2.96-2.18,13.39-12.6,14.66-14.86,1.27-2.25,1.76-7.95,2.54-9.71.78-1.76,3.74-7.04,3.88-9.22.14-2.18,1.55-6.55,3.6-7.32,2.04-.77,8.11-1.2,9.38,2.89,1.27,4.08.21,11.19-.49,15.42-.7,4.22-1.9,14.86-1.76,17.67.14,2.82.57,11.68.92,13.73.35,2.04.92,4.33.92,4.33,0,0-8.03,1.73-11.07,2.64s-6.41,4.15-6.77,4.43c-.35.28-3.31.77-4.44.99-1.13.21-1.97,5.84-.92,8.45,1.05,2.61,3.74,5.28,6.77,4.79,3.03-.49,5.99-2.61,8.11-1.34,2.11,1.27,3.95,4.29,3.17,5.49-.77,1.2-3.31,1.76-2.75,3.66.57,1.9,4.65,3.17,4.73,4.79.07,1.62-2.12,3.45-4.73,4.15-2.61.7-7.96.35-9.17-.99-1.2-1.34-3.11-2.93-4.05-3.23-.95-.31-1.78-.58-2.26-.05-.49.53-1.15,3.59-1.33,4.11-.18.53-.99,2.57-1.68,2.76-.69.19-2.27.03-2.55,0-.29-.02-.71-.21-.71-.21h0Z"/>
  <path class="st7" d="M630.7,151.44s5.19-2.29,6.18-2.79c.99-.49.49-4.01,1.48-4.79.99-.77,10.64-6.12,11.14-6.83,0,0,.02,3.81,1.23,6.18,1.21,2.38,1.53,5.54,1.53,6.07s-11.81,7.55-11.81,7.55l-3.04,3.22-1.11,1.16h-6.02l.55-6.28s.17-1.96.16-2.27c-.01-.32-.28-1.23-.28-1.23h0Z"/>
  <path class="st7" d="M630.27,161.22h6.02l1.11-1.16,3.04-3.22s11.81-7.02,11.81-7.55c0,0,.26,8.02-.9,10.14-1.16,2.11-1.27,13.62-1.27,13.62v8.03s-2.4-.14-5.04-.7c-2.65-.57-3.81-.6-3.77.39.04.99,1.2,9.71,1.02,10.39-.18.67-3.88,3.66-5.71,1.8-1.84-1.86-5.6-6.16-5.6-6.16l-5.44-4.41s-.49-6.26-.58-7.63c-.09-1.37-.39-3.59,0-5.6.39-2,1.1-5.65,1.18-5.89.08-.24.15-.79.99-.93s3.07-.41,3.07-.41l.06-.69h0Z"/>
  <path class="st7" d="M636.59,192.93s-2.52,2.71-2.52,3.98,2.13,3.11,2.52,4.23c.39,1.11.2,1.14.1,1.58-.11.45-.94,1.35-.94,1.35,0,0-1.61-.72-2.37-.98-.77-.26-3.41-1.1-4.07-1.38-.66-.28-1.65-.72-2.03-1.16-.38-.43-.39-1.17-.33-1.58.07-.42.52-1.89.76-2.31.24-.43.79-1.06.88-1.39.08-.34.12-1.47-.21-2.04-.33-.57-.35-.85-.76-1.51-.4-.66-1.71-2.88-1.71-2.88l-1.34-2.62s-.35-.59-.18-1.07c.17-.47,1-2.22,1-2.22,0,0,.24-.51.38-.39.15.12,2.71,2.2,2.71,2.2l2.29,1.86,1.15,1.23,1.71,1.92,2.31,2.51.65.67h0Z"/>
  <path class="st7" d="M609.64,143.37c1.2,1.34,6.56,1.69,9.17.99,2.61-.7,4.79-2.54,4.72-4.15-.07-1.62-4.16-2.89-4.72-4.79-.57-1.9,1.97-2.46,2.75-3.66.78-1.2-1.06-4.22-3.17-5.49-2.12-1.27-5.08.84-8.11,1.34-3.03.49-5.71-2.18-6.76-4.79-1.06-2.61-.21-8.24.92-8.45,1.13-.21,4.09-.7,4.44-.99.35-.28,3.74-3.52,6.77-4.43,3.03-.92,11.07-2.64,11.07-2.64,0,0,4.92,4.89,6.33,4.68,1.41-.21,5.73-1.27,7.41-.7,1.68.57,8.17,5.35,8.45,6.83.28,1.48,1.2,9.29,1.2,11.05s0,8.1-.49,8.8c-.49.7-10.15,6.05-11.14,6.83-.99.77-.49,4.29-1.48,4.79-.99.49-6.18,2.79-6.18,2.79,0,0-.85-2.03-1.6-2.61-.75-.58-2.17-1.38-4.28-1.22-2.11.16-2.94.09-3.34,1.27-.4,1.19-.8,1.89-.09,2.02.71.13,3.28.81,3.62,1,.34.19,1.13.49.95,1.29-.18.79-1.71,3.67-3.02,5.2-1.31,1.53-3.09,3.55-4.33,3.68-1.25.13-5.02.19-6.02-.04-1-.23-2.41-.63-4.28-.54-1.88.09-3.54.23-3.54.23,0,0,.4-1.4.24-2.48-.16-1.08-.6-4.11-.56-5.24.04-1.13.26-4.16.37-4.9.11-.74,1.21-4.89,1.32-5.3.11-.41.43-3.06.43-3.06,0,0,.65.44,1.18.9.53.46,1.81,1.79,1.81,1.79h-.01Z"/>
  <path class="st0" d="M597.11,146.75s-.92,2.82-1.41,4.36c-.49,1.55-6.63,3.17-9.45,3.17s-3.88-4.08-4.51-6.12c-.63-2.04-4.23-5.28-5.36-6.97-1.13-1.69-9.3-6.48-12.62-6.97-3.31-.49-14.52-9.36-14.94-9.36,0,0,3.78-4.65,4.76-4.93.99-.28,5.43-.42,7.26-.99,1.84-.56,5.92-7.04,7.26-8.8,1.34-1.76,3.65-3.31,4.86-3.73,1.21-.42,6,.42,7.83,2.54,1.84,2.11,5.57,9.36,5.71,12.81.14,3.45-1.13,5.84.35,7.25,1.48,1.41,4.51,2.96,5.22,4.36.7,1.41,1.27,2.25.35,3.38-.92,1.13-1.9,1.62-.7,2.82,1.2,1.2,3.88,3.59,3.88,3.59l1.51,3.59h0ZM597.11,146.75l-1.51-3.59s-2.68-2.39-3.88-3.59c-1.2-1.2-.21-1.69.7-2.82.92-1.12.35-1.97-.35-3.38-.7-1.41-3.74-2.96-5.22-4.36-1.48-1.41-.21-3.8-.35-7.25-.14-3.45-3.88-10.7-5.71-12.81-1.83-2.11-6.63-2.96-7.83-2.54,0,0,17.21-10.84,20.17-13.02,2.96-2.18,13.39-12.6,14.66-14.86,1.27-2.25,1.76-7.95,2.54-9.71.78-1.76,3.74-7.04,3.88-9.22.14-2.18,1.55-6.55,3.6-7.32,2.04-.77,8.11-1.2,9.38,2.89,1.27,4.08.21,11.19-.49,15.42-.7,4.22-1.9,14.86-1.76,17.67.14,2.82.57,11.68.92,13.73.35,2.04.92,4.33.92,4.33,0,0-8.03,1.73-11.07,2.64s-6.41,4.15-6.77,4.43c-.35.28-3.31.77-4.44.99-1.13.21-1.97,5.84-.92,8.45,1.05,2.61,3.74,5.28,6.77,4.79,3.03-.49,5.99-2.61,8.11-1.34,2.12,1.27,3.95,4.29,3.17,5.49-.77,1.2-3.31,1.76-2.75,3.66.57,1.9,4.65,3.17,4.73,4.79.07,1.62-2.12,3.45-4.73,4.15-2.61.7-7.96.35-9.17-.99-1.2-1.34-3.11-2.93-4.05-3.23-.95-.31-1.78-.58-2.26-.05-.49.53-1.15,3.59-1.33,4.11-.18.53-.99,2.57-1.68,2.76-.69.19-2.27.03-2.55,0-.29-.02-.71-.21-.71-.21h0ZM650.09,181.07l.37,5.17s.05,7.18-.74,7.76c-.79.58-8.8-1.53-8.8-1.53h0s.37-.26.9-.71c.53-.46.49-1.29.49-1.29l-.45-4.54s-.75-3.97-.58-5.18M650.09,181.07s-4.38-.6-5.52-.8c-1.14-.2-3.12-.73-3.3.49M650.09,181.07v-8.03s.11-11.51,1.27-13.62c1.16-2.11.9-10.14.9-10.14,0,.52-11.81,7.55-11.81,7.55l-3.04,3.22-1.11,1.16h-6.02s-.06.69-.06.69c0,0-2.22.27-3.07.41s-.92.69-.99.93c-.08.24-.79,3.89-1.18,5.89-.39,2-.09,4.23,0,5.6.09,1.37.58,7.63.58,7.63l5.44,4.41s3.77,4.3,5.6,6.16c1.83,1.86,5.53-1.13,5.71-1.8.17-.67-.99-9.4-1.02-10.39M650.09,181.07s-2.4-.14-5.04-.7c-2.65-.57-3.81-.6-3.77.39M636.59,192.93s.57.4,1.04.56c.47.15,1.4-.09,1.89-.26.49-.17,1.4-.75,1.4-.75l5.74,1.31s.26,1.37.37,3.12c.11,1.74.37,3.96.32,4.54-.05.58-10.52,0-10.52,0,0,0-.29-.45-.46-.78-.17-.33-1.07-1.45-1.07-1.45,0,0-1.05-1.61-1.21-2.13-.16-.51.8-2.02.8-2.02l1.71-2.14ZM636.59,192.93s-2.52,2.71-2.52,3.98,2.13,3.11,2.52,4.23c.39,1.11.2,1.14.1,1.58-.11.45-.94,1.35-.94,1.35,0,0-1.61-.72-2.37-.98-.77-.26-3.41-1.1-4.07-1.38-.66-.28-1.65-.72-2.03-1.16-.38-.43-.39-1.17-.33-1.58.07-.42.52-1.89.76-2.31.24-.43.79-1.06.88-1.39.08-.34.12-1.47-.21-2.04-.33-.57-.35-.85-.76-1.51-.4-.66-1.71-2.88-1.71-2.88l-1.34-2.62s-.35-.59-.18-1.07c.17-.47,1-2.22,1-2.22,0,0,.24-.51.38-.39.15.12,2.71,2.2,2.71,2.2l2.29,1.86,1.15,1.23,1.71,1.92,2.31,2.51.65.67h0ZM171.3,260.06s-7.4-5.81-7.4-6.76,1.48-4.43,3.7-4.75c2.22-.32,5.71.21,6.34,1.37.64,1.16,1.06,3.7.85,5.49-.21,1.8-3.49,4.65-3.49,4.65h0ZM199.43,274.95s2.11-3.48,5.6-2.74c3.49.74,5.92,2.85,5.92,4.75s-2.01,7.71-3.7,8.55-7.51-4.54-7.82-6.7c-.32-2.17,0-3.86,0-3.86ZM325.47,295.92s8.74-7.04,12.12-7.46c3.39-.42,9.02-.56,10.15-1.41s3.24-2.67,4.51-1.27c1.27,1.41,4.09,4.55,6.21,4.81,2.11.26,5.36,1.39,6.2,2.79.85,1.41-.14,5.35-2.54,6.19-2.4.85-8.88,0-9.73-1.12-.85-1.13-2.54-.16-4.51,1.47-1.97,1.63-5.64,3.18-9.02,2.47-3.38-.7-11.84-3.66-11.84-3.66l-1.55-2.82h0ZM384.93,279.1s2.29-3.6,4.13-4.44c1.84-.85,6.63-.14,8.18.99,1.55,1.12,4.23,4.23,4.09,5.92-.14,1.69.14,4.08-1.97,4.51-2.11.42-4.25.52-4.25.52l-10.17-7.48h0ZM640.42,207.86s2.32-.71,3.16-1.03c.85-.32,1.9-1.03,2.22-1.82.32-.79,1.01-3.39,1.01-3.39h-5.37l-4.62-.17s.1.43-.02.85c-.12.42-1.06,1.77-1.06,1.77,0,0,2.18,1.1,2.69,1.47.52.37,1.22.87,1.51,1.32.29.45.48,1.01.48,1.01ZM616.96,213.43s-1.29,7.29-1.02,8.92c.26,1.64,3.17,2.96,4.47,2.96s6.79-3.64,7.53-4.96c.74-1.32,1.85-6.93,1.85-6.93l-6.21.13-3.73.02-2.89-.13h0ZM601.85,191.46c.16-1.64-.42-3.64-.85-5.81-.42-2.17-.79-6.86.58-8.92,1.38-2.06,2.48-2.64,2.65-5.33.16-2.69-3.86-3.8-3.86-4.91s3.17-3.91,4.28-4.8c0,0,5.05-.6,6.84,0,1.8.6,4.76.6,6.87.38,2.12-.21,4.81-3.86,5.55-4.96.74-1.11,3.12-3.96,1.69-4.96-1.42-1.01-4.07-1.21-4.39-1.37-.32-.16.21-2.8,1.59-3.06,1.38-.26,5.29-.37,6.4,1.06,1.11,1.43,1.96,2.32,1.74,4.7-.21,2.38-.74,8.45-.74,8.45,0,0-3.12.32-3.7.58-.58.26-1.69,7.71-1.69,9.35s.69,9.56.74,10.35c.05.79-1.16,2.38-1.22,3.22-.05.85,2.32,4.78,3.12,6.06.79,1.28,1.75,3.18.9,4.19-.85,1-1.96,3.64-1.16,4.8.79,1.16,4.65,2.01,6.87,2.9,2.22.9,8.3,3.48,5.76,6.02-2.54,2.54-8.88,4.01-8.88,4.01,0,0-13.43.42-14.17,0-.74-.42-6.45-6.97-6.34-9.4.11-2.43,1.27-5.54-1.48-7.36-2.75-1.82-4.55-1.51-5.29-2.25-.74-.74-1.82-2.92-1.82-2.92h0ZM630.7,151.44s5.19-2.29,6.18-2.79c.99-.49.49-4.01,1.48-4.79.99-.77,10.64-6.12,11.14-6.83,0,0,.02,3.81,1.23,6.18,1.21,2.38,1.53,5.54,1.53,6.07s-11.81,7.55-11.81,7.55l-3.04,3.22-1.11,1.16h-6.02l.55-6.28s.17-1.96.16-2.27c-.01-.32-.28-1.23-.28-1.23h0ZM609.64,143.37c1.2,1.34,6.56,1.69,9.17.99,2.61-.7,4.79-2.54,4.72-4.15-.07-1.62-4.16-2.89-4.72-4.79-.57-1.9,1.97-2.46,2.75-3.66.78-1.2-1.06-4.22-3.17-5.49-2.12-1.27-5.08.84-8.11,1.34-3.03.49-5.71-2.18-6.76-4.79-1.06-2.61-.21-8.24.92-8.45,1.13-.21,4.09-.7,4.44-.99.35-.28,3.74-3.52,6.77-4.43,3.03-.92,11.07-2.64,11.07-2.64,0,0,4.92,4.89,6.33,4.68,1.41-.21,5.73-1.27,7.41-.7,1.68.57,8.17,5.35,8.45,6.83.28,1.48,1.2,9.29,1.2,11.05s0,8.1-.49,8.8c-.49.7-10.15,6.05-11.14,6.83-.99.77-.49,4.29-1.48,4.79-.99.49-6.18,2.79-6.18,2.79,0,0-.85-2.03-1.6-2.61-.75-.58-2.17-1.38-4.28-1.22-2.11.16-2.94.09-3.34,1.27-.4,1.19-.8,1.89-.09,2.02.71.13,3.28.81,3.62,1,.34.19,1.13.49.95,1.29-.18.79-1.71,3.67-3.02,5.2-1.31,1.53-3.09,3.55-4.33,3.68-1.25.13-5.02.19-6.02-.04-1-.23-2.41-.63-4.28-.54-1.88.09-3.54.23-3.54.23,0,0,.4-1.4.24-2.48-.16-1.08-.6-4.11-.56-5.24.04-1.13.26-4.16.37-4.9.11-.74,1.21-4.89,1.32-5.3.11-.41.43-3.06.43-3.06,0,0,.65.44,1.18.9.53.46,1.81,1.79,1.81,1.79h-.01Z"/>
  <rect class="st6" x="198.72" y=".77" width="199.46" height="57.27" rx="14.51" ry="14.51"/>
  <path class="st3" d="M360.45,39.7c-.15-.08-.27-.2-.4-.31-1.16-1.03-7.23-6.67-7.23-12.23,0-2.17.86-4.25,2.39-5.78,1.53-1.53,3.61-2.39,5.78-2.39s4.25.86,5.78,2.39c1.53,1.53,2.39,3.61,2.39,5.78,0,5.49-5.91,11.06-7.18,12.19-.16.14-.31.29-.5.39-.32.15-.72.14-1.03-.03ZM360.99,30.73c.47,0,.93-.09,1.37-.27.43-.18.83-.44,1.16-.78.33-.33.6-.73.78-1.16.18-.43.27-.9.27-1.37s-.09-.93-.27-1.37c-.18-.43-.44-.83-.78-1.16-.33-.33-.73-.6-1.16-.78-.43-.18-.9-.27-1.37-.27-.95,0-1.86.38-2.53,1.05-.67.67-1.05,1.58-1.05,2.53s.38,1.86,1.05,2.53c.67.67,1.58,1.05,2.53,1.05Z"/>
  <path class="st3" d="M261.45,114.96c-.15-.08-.27-.2-.4-.31-1.16-1.03-7.23-6.67-7.23-12.23,0-2.17.86-4.25,2.39-5.78,1.53-1.53,3.61-2.39,5.78-2.39s4.25.86,5.78,2.39c1.53,1.53,2.39,3.61,2.39,5.78,0,5.49-5.91,11.06-7.18,12.19-.16.14-.31.29-.5.39-.32.15-.72.14-1.03-.03ZM261.99,105.99c.47,0,.93-.09,1.37-.27.43-.18.83-.44,1.16-.78.33-.33.6-.73.78-1.16.18-.43.27-.9.27-1.37s-.09-.93-.27-1.37c-.18-.43-.44-.83-.78-1.16-.33-.33-.73-.6-1.16-.78-.43-.18-.9-.27-1.37-.27-.95,0-1.86.38-2.53,1.05-.67.67-1.05,1.58-1.05,2.53s.38,1.86,1.05,2.53c.67.67,1.58,1.05,2.53,1.05Z"/>
  <rect class="st6" x=".72" y="151.3" width="199.46" height="57.27" rx="14.51" ry="14.51"/>
  <path class="st4" d="M34.53,174.01h2.29l4.15,11.42h-2.11l-.73-2.02h-4.9l-.73,2.02h-2.11l4.15-11.42ZM33.96,181.42h3.44l-1.72-4.71-1.71,4.71ZM42.35,185.44v-11.42h4.16c.6,0,1.15.13,1.63.38.49.24.88.6,1.16,1.06.29.46.43,1,.43,1.62,0,.28-.04.56-.12.84-.08.28-.21.54-.38.77-.17.22-.39.39-.65.5.35.09.64.24.86.47.22.23.4.5.52.81.13.3.21.62.25.94.05.32.07.61.07.88,0,.6-.15,1.14-.45,1.62-.3.47-.7.85-1.21,1.13-.5.28-1.06.42-1.66.42h-4.63ZM44.34,183.73h2.43c.33,0,.62-.08.88-.24s.47-.38.63-.65c.16-.28.24-.59.24-.95,0-.31-.08-.59-.24-.87-.16-.27-.37-.49-.63-.66s-.55-.25-.88-.25h-2.43v3.62ZM44.34,178.44h1.94c.4,0,.75-.12,1.03-.38.29-.25.43-.58.43-1,0-.44-.14-.77-.43-.99-.28-.23-.63-.34-1.03-.34h-1.94v2.71ZM56.44,185.65c-.91,0-1.72-.22-2.41-.67-.69-.45-1.22-1.04-1.6-1.79-.38-.76-.57-1.59-.57-2.51v-6.66h1.99v6.66c0,.54.1,1.04.3,1.5.21.45.5.81.88,1.09.39.27.85.4,1.4.4s1.02-.13,1.4-.4c.38-.27.67-.63.86-1.09.2-.46.3-.96.3-1.5v-6.66h1.99v6.66c0,.69-.11,1.34-.33,1.94-.22.6-.53,1.13-.93,1.58-.4.46-.88.81-1.44,1.07-.55.26-1.17.38-1.86.38ZM66.87,185.44v-11.42h3.79c.79,0,1.53.15,2.21.45.69.29,1.3.71,1.82,1.23.53.52.94,1.13,1.23,1.82.3.68.45,1.42.45,2.21s-.15,1.53-.45,2.22c-.29.68-.7,1.29-1.23,1.82-.52.52-1.13.93-1.82,1.23-.69.29-1.42.44-2.21.44h-3.79ZM68.86,183.45h1.8c.51,0,.98-.1,1.43-.29.45-.2.85-.46,1.19-.8.34-.34.61-.74.81-1.18.2-.45.29-.94.29-1.45s-.1-1-.29-1.44c-.2-.45-.47-.84-.81-1.18s-.74-.61-1.18-.8c-.45-.2-.92-.29-1.44-.29h-1.8v7.44ZM84.42,174.01h1.99v11.42h-1.99v-5.12h-4.73v5.12h-1.99v-11.42h1.99v4.31h4.73v-4.31ZM92.19,174.01h2.29l4.15,11.42h-2.11l-.73-2.02h-4.9l-.73,2.02h-2.11l4.15-11.42ZM91.62,181.42h3.44l-1.72-4.71-1.71,4.71ZM100.01,185.44v-11.42h4.16c.6,0,1.15.13,1.63.38.49.24.88.6,1.16,1.06.29.46.43,1,.43,1.62,0,.28-.04.56-.12.84-.08.28-.21.54-.38.77-.17.22-.39.39-.65.5.35.09.64.24.87.47.22.23.4.5.52.81.12.3.21.62.25.94.05.32.07.61.07.88,0,.6-.15,1.14-.45,1.62-.3.47-.7.85-1.21,1.13-.5.28-1.06.42-1.67.42h-4.63ZM102,183.73h2.43c.33,0,.62-.08.88-.24.26-.16.47-.38.63-.65.16-.28.24-.59.24-.95,0-.31-.08-.59-.24-.87-.16-.27-.37-.49-.63-.66-.26-.17-.56-.25-.88-.25h-2.43v3.62ZM102,178.44h1.94c.4,0,.75-.12,1.03-.38.29-.25.43-.58.43-1,0-.44-.14-.77-.43-.99-.28-.23-.63-.34-1.03-.34h-1.94v2.71ZM109.51,185.44v-11.42h1.99v11.42h-1.99Z"/>
  <path class="st3" d="M162.45,190.23c-.15-.08-.27-.2-.4-.31-1.16-1.03-7.23-6.67-7.23-12.23,0-2.17.86-4.25,2.39-5.78,1.53-1.53,3.61-2.39,5.78-2.39s4.25.86,5.78,2.39c1.53,1.53,2.39,3.61,2.39,5.78,0,5.49-5.91,11.06-7.18,12.19-.16.14-.31.29-.5.38-.32.15-.72.14-1.03-.03ZM162.99,181.26c.47,0,.93-.09,1.37-.27.43-.18.83-.44,1.16-.78s.6-.73.77-1.16c.18-.43.27-.9.27-1.37s-.09-.93-.27-1.37c-.18-.43-.44-.83-.77-1.16s-.73-.6-1.16-.78c-.43-.18-.9-.27-1.37-.27-.95,0-1.86.38-2.53,1.05-.67.67-1.05,1.58-1.05,2.53s.38,1.86,1.05,2.53,1.58,1.05,2.53,1.05Z"/>
  <path class="st4" d="M129.55,109.98v-11.42h3.79c.79,0,1.53.15,2.21.45.69.29,1.3.7,1.82,1.23.53.52.94,1.13,1.23,1.82.3.69.45,1.42.45,2.21s-.15,1.53-.45,2.22c-.29.69-.7,1.29-1.23,1.82-.52.52-1.13.93-1.82,1.23-.69.29-1.42.44-2.21.44h-3.79ZM131.54,107.98h1.79c.51,0,.98-.1,1.43-.29.45-.2.85-.46,1.19-.8.34-.34.61-.74.81-1.18.2-.45.29-.94.29-1.45s-.1-1-.29-1.44c-.2-.45-.46-.84-.81-1.18-.34-.34-.74-.61-1.18-.8-.45-.2-.93-.29-1.44-.29h-1.79v7.44ZM144.96,110.19c-.91,0-1.72-.22-2.41-.67-.68-.45-1.22-1.04-1.6-1.8-.38-.76-.57-1.59-.57-2.51v-6.66h1.99v6.66c0,.54.1,1.04.3,1.5.21.45.5.81.88,1.09.39.27.85.4,1.4.4s1.02-.13,1.4-.4c.38-.27.67-.63.86-1.09.2-.46.3-.96.3-1.5v-6.66h1.99v6.66c0,.69-.11,1.34-.33,1.94-.22.6-.53,1.13-.93,1.58-.4.46-.88.81-1.45,1.07-.55.26-1.18.38-1.86.38ZM151.29,109.98v-11.42h4.16c.6,0,1.15.13,1.63.38.49.24.88.6,1.16,1.06.29.46.43,1,.43,1.62,0,.28-.04.56-.12.84-.08.28-.21.54-.38.77-.17.22-.39.39-.65.5.35.09.64.24.87.47.22.23.4.5.52.81.12.3.21.62.25.94.05.32.07.61.07.88,0,.6-.15,1.14-.45,1.62-.3.47-.7.85-1.21,1.13-.5.28-1.06.42-1.67.42h-4.63ZM153.28,108.27h2.43c.33,0,.62-.08.88-.24.26-.16.47-.38.63-.65.16-.28.24-.59.24-.95,0-.3-.08-.59-.24-.86-.16-.27-.37-.49-.63-.66-.26-.17-.55-.25-.88-.25h-2.43v3.61ZM153.28,102.97h1.94c.4,0,.75-.13,1.03-.38.29-.25.43-.58.43-1,0-.44-.14-.77-.43-1-.28-.23-.62-.34-1.03-.34h-1.94v2.71ZM163.98,98.55h2.29l4.15,11.42h-2.11l-.74-2.02h-4.89l-.73,2.02h-2.11l4.14-11.42ZM163.41,105.96h3.43l-1.72-4.71-1.71,4.71ZM172.04,109.98v-11.42h1.99v11.42h-1.99Z"/>
  <path class="st4" d="M232.99,35.31c-.63,0-1.24-.1-1.82-.29-.58-.2-1.08-.49-1.52-.86-.43-.38-.75-.82-.94-1.35l1.87-.69c.08.22.23.42.46.6.23.18.52.32.86.43.34.11.7.16,1.08.16s.77-.06,1.11-.18c.35-.12.63-.3.84-.51.21-.22.32-.48.32-.78s-.11-.54-.33-.74c-.22-.19-.51-.35-.86-.47-.35-.11-.71-.2-1.08-.26-.81-.12-1.54-.32-2.18-.58s-1.15-.62-1.53-1.08c-.37-.46-.55-1.06-.55-1.79,0-.69.2-1.3.6-1.81.4-.52.92-.92,1.57-1.21.65-.29,1.35-.43,2.1-.43.62,0,1.23.1,1.81.29.58.2,1.09.48,1.53.86.44.38.76.83.95,1.35l-1.88.68c-.08-.22-.23-.42-.46-.6-.23-.18-.52-.32-.86-.42-.34-.11-.7-.16-1.09-.16-.39,0-.75.06-1.1.19-.34.12-.62.3-.84.51-.22.22-.33.47-.33.75,0,.36.1.64.3.82.21.18.48.32.82.41.34.08.72.16,1.14.23.76.12,1.47.32,2.11.6.65.28,1.17.66,1.56,1.13.39.47.59,1.04.59,1.72s-.2,1.3-.59,1.82c-.39.52-.91.92-1.56,1.21s-1.35.43-2.11.43ZM245.83,23.68h1.99v11.42h-1.99v-5.12h-4.73v5.12h-1.99v-11.42h1.99v4.31h4.73v-4.31ZM253.6,23.68h2.29l4.15,11.42h-2.11l-.73-2.02h-4.9l-.73,2.02h-2.11l4.15-11.42ZM253.03,31.09h3.43l-1.72-4.71-1.71,4.71ZM261.42,35.1v-11.42h4.38c.62,0,1.18.15,1.68.47.5.31.9.73,1.19,1.25.29.52.44,1.09.44,1.72,0,.52-.1.99-.28,1.43-.19.43-.45.8-.78,1.12-.33.31-.71.56-1.15.72l2.73,4.72h-2.29l-2.64-4.55h-1.28v4.55h-1.99ZM263.41,28.57h2.16c.28,0,.54-.07.78-.21.23-.14.42-.33.56-.57.14-.24.21-.51.21-.8s-.07-.57-.21-.81c-.14-.24-.33-.43-.56-.57-.23-.14-.49-.21-.78-.21h-2.16v3.17ZM272.42,35.31c-.42,0-.83-.07-1.23-.21-.4-.14-.76-.35-1.09-.63l1.27-1.53c.12.1.27.19.44.27.18.08.38.12.6.12.3,0,.57-.08.82-.23.25-.16.44-.36.59-.61.15-.25.23-.53.23-.83v-7.97h1.99v7.97c0,.67-.16,1.28-.49,1.84-.33.55-.76.99-1.31,1.33-.55.33-1.16.5-1.82.5ZM281.83,23.68h2.29l4.15,11.42h-2.11l-.74-2.02h-4.9l-.73,2.02h-2.11l4.15-11.42ZM281.26,31.09h3.44l-1.72-4.71-1.71,4.71ZM296.37,23.68h1.99v11.42h-1.99v-5.12h-4.73v5.12h-1.99v-11.42h1.99v4.31h4.73v-4.31Z"/>
</svg>